<?xml version="1.0" encoding="utf-8"?>
<!-- Generator: Adobe Illustrator 23.0.1, SVG Export Plug-In . SVG Version: 6.00 Build 0)  -->
<svg version="1.1" id="Layer_1" xmlns="http://www.w3.org/2000/svg" xmlns:xlink="http://www.w3.org/1999/xlink" x="0px" y="0px"
	 viewBox="0 0 372.4 75.6" style="enable-background:new 0 0 372.4 75.6;" xml:space="preserve">
<style type="text/css">
	.st0{fill:#53483F;}
	.st1{fill:#D7411D;}
</style>
<path class="st0" d="M40.1,56.4H17.9c-1.4,0-3.1-0.1-5.1-0.3c-2-0.2-4-0.8-5.9-1.8c-1.9-1-3.5-2.7-4.9-4.9C0.7,47.2,0,44.1,0,40
	c0-1.4,0.1-2.9,0.4-4.4c0.2-1.5,0.7-2.9,1.4-4.2c0.7-1.3,1.6-2.3,2.7-3.1c1.1-0.8,2.6-1.2,4.4-1.2c0.3,0,0.7,0,1.4,0.1
	c0.6,0.1,1.3,0.3,1.9,0.7s1.2,1.1,1.8,1.9c0.5,0.9,0.8,2.1,0.8,3.8c0,0.4,0,0.9-0.1,1.5c-0.1,0.6-0.3,1.1-0.5,1.6
	c-0.3,0.5-0.7,1-1.2,1.3c-0.5,0.4-1.2,0.5-2.1,0.5c-0.4,0-0.9-0.1-1.5-0.2C8.6,38.3,8,38.1,7.3,38c-0.7-0.2-1.3-0.3-1.8-0.4
	c-0.5-0.1-0.9-0.2-1.1-0.2c-0.8,0-1.4,0.1-1.9,0.5c-0.4,0.3-0.8,0.6-0.9,1c-0.2,0.4-0.3,0.8-0.3,1.2c0,0.4,0,0.7,0,0.9
	c0,0.9,0.2,1.6,0.5,2.1c0.4,0.5,0.8,0.8,1.4,1c0.5,0.2,1.1,0.3,1.8,0.4c0.6,0,1.2,0,1.7,0h33.6V56.4z"/>
<path class="st0" d="M19.2,40.1V17.9c0-1.4,0.1-3.1,0.3-5.1c0.2-2,0.8-4,1.8-5.9c1-1.9,2.7-3.5,4.9-4.9C28.5,0.7,31.6,0,35.6,0
	c1.4,0,2.9,0.1,4.4,0.4c1.5,0.2,2.9,0.7,4.2,1.4c1.3,0.7,2.3,1.6,3.1,2.7c0.8,1.1,1.2,2.6,1.2,4.4c0,0.3,0,0.7-0.1,1.4
	c-0.1,0.6-0.3,1.3-0.7,1.9s-1.1,1.2-1.9,1.8c-0.9,0.5-2.1,0.8-3.8,0.8c-0.4,0-0.9,0-1.5-0.1c-0.6-0.1-1.1-0.3-1.6-0.5
	c-0.5-0.3-1-0.7-1.3-1.2c-0.4-0.5-0.5-1.2-0.5-2.1c0-0.4,0.1-0.9,0.2-1.5c0.1-0.6,0.2-1.2,0.4-1.9C37.8,6.6,38,6,38.1,5.5
	c0.1-0.5,0.2-0.9,0.2-1.1c0-0.8-0.1-1.4-0.5-1.9c-0.3-0.4-0.6-0.8-1-0.9c-0.4-0.2-0.8-0.3-1.2-0.3c-0.4,0-0.7,0-0.9,0
	c-0.9,0-1.6,0.2-2.1,0.5c-0.5,0.4-0.8,0.8-1,1.4c-0.2,0.5-0.3,1.1-0.4,1.8c0,0.6,0,1.2,0,1.7v33.6H19.2z"/>
<path class="st0" d="M35.6,19.2h22.2c1.4,0,3.1,0.1,5.1,0.3c2,0.2,4,0.8,5.9,1.8c1.9,1,3.5,2.7,4.9,4.9c1.4,2.2,2.1,5.3,2.1,9.4
	c0,1.4-0.1,2.9-0.4,4.4c-0.2,1.5-0.7,2.9-1.4,4.2c-0.7,1.3-1.6,2.3-2.7,3.1c-1.1,0.8-2.6,1.2-4.4,1.2c-0.3,0-0.7,0-1.4-0.1
	c-0.6-0.1-1.3-0.3-1.9-0.7s-1.2-1.1-1.8-1.9C61.3,45,61,43.8,61,42.1c0-0.4,0-0.9,0.1-1.5c0.1-0.6,0.3-1.1,0.5-1.6
	c0.3-0.5,0.7-1,1.2-1.3c0.5-0.4,1.2-0.5,2.1-0.5c0.4,0,0.9,0.1,1.5,0.2c0.6,0.1,1.2,0.2,1.9,0.4c0.7,0.2,1.3,0.3,1.8,0.4
	c0.5,0.1,0.9,0.2,1.1,0.2c0.8,0,1.4-0.1,1.9-0.5c0.4-0.3,0.8-0.6,0.9-1c0.2-0.4,0.3-0.8,0.3-1.2c0-0.4,0-0.7,0-0.9
	c0-0.9-0.2-1.6-0.5-2.1c-0.4-0.5-0.8-0.8-1.4-1c-0.5-0.2-1.1-0.3-1.8-0.4c-0.6,0-1.2,0-1.7,0H35.6V19.2z"/>
<path class="st1" d="M56.4,35.6v22.2c0,1.4-0.1,3.1-0.3,5.1c-0.2,2-0.8,4-1.8,5.9c-1,1.9-2.7,3.5-4.9,4.9c-2.2,1.4-5.3,2.1-9.4,2.1
	c-1.4,0-2.9-0.1-4.4-0.4c-1.5-0.2-2.9-0.7-4.2-1.4c-1.3-0.7-2.3-1.6-3.1-2.7c-0.8-1.1-1.2-2.6-1.2-4.4c0-0.3,0-0.7,0.1-1.4
	c0.1-0.6,0.3-1.3,0.7-1.9s1.1-1.2,1.9-1.8c0.9-0.5,2.1-0.8,3.8-0.8c0.4,0,0.9,0,1.5,0.1c0.6,0.1,1.1,0.3,1.6,0.5
	c0.5,0.3,1,0.7,1.3,1.2c0.4,0.5,0.5,1.2,0.5,2.1c0,0.4-0.1,0.9-0.2,1.5c-0.1,0.6-0.2,1.2-0.4,1.9c-0.2,0.7-0.3,1.3-0.4,1.8
	c-0.1,0.5-0.2,0.9-0.2,1.1c0,0.8,0.1,1.4,0.5,1.9c0.3,0.4,0.6,0.8,1,0.9c0.4,0.2,0.8,0.3,1.2,0.3c0.4,0,0.7,0,0.9,0
	c0.9,0,1.6-0.2,2.1-0.5c0.5-0.4,0.8-0.8,1-1.4c0.2-0.5,0.3-1.1,0.4-1.8c0-0.6,0-1.2,0-1.7V35.6H56.4z"/>
<g>
	<path class="st0" d="M115.6,46.7c-0.1,1.6-0.6,3-1.4,4.5c-0.8,1.4-2,2.7-3.7,3.7c-1.7,1-4.1,1.6-7.2,1.6c-1.1,0-2.2-0.1-3.4-0.3
		c-1.2-0.2-2.2-0.5-3.2-1c-1-0.5-1.8-1.2-2.4-2.1c-0.6-0.9-0.9-2-0.9-3.3c0-0.2,0-0.6,0.1-1c0-0.5,0.2-1,0.5-1.5
		c0.3-0.5,0.8-1,1.5-1.4c0.7-0.4,1.6-0.6,2.9-0.6c0.3,0,0.7,0,1.2,0.1c0.4,0.1,0.9,0.2,1.3,0.4c0.4,0.2,0.7,0.5,1,0.9
		c0.3,0.4,0.4,0.9,0.4,1.6c0,0.3,0,0.7-0.1,1.1s-0.2,0.9-0.3,1.4s-0.2,1-0.3,1.4c-0.1,0.4-0.1,0.7-0.1,0.9c0,0.6,0.1,1.1,0.3,1.4
		c0.2,0.3,0.5,0.6,0.8,0.7c0.3,0.1,0.6,0.2,0.9,0.3s0.6,0,0.7,0c0.7,0,1.2-0.1,1.6-0.4c0.4-0.3,0.6-0.6,0.8-1
		c0.2-0.4,0.3-0.9,0.3-1.4c0-0.5,0-0.9,0-1.3V11.8h-5.8v-0.9h20.7v0.9h-5.8v31C115.8,43.9,115.7,45.2,115.6,46.7z"/>
	<path class="st0" d="M163.2,10.9v10.7h-0.8c-0.2-0.7-0.6-1.6-1.1-2.7c-0.5-1.1-1.2-2.2-2.1-3.2s-2.1-2-3.5-2.7
		c-1.4-0.8-3.2-1.2-5.2-1.2h-10v19.4h3.5c1.5,0,2.9-0.2,3.9-0.7c1.1-0.4,2-1.1,2.7-1.9c0.7-0.8,1.3-1.8,1.8-3
		c0.5-1.2,0.8-2.4,1.1-3.9h0.8v19.5h-0.8c-0.3-1.2-0.6-2.4-1-3.5c-0.4-1.1-0.9-2.1-1.6-3s-1.5-1.5-2.5-2c-1-0.5-2.2-0.8-3.7-0.8
		h-4.2v22.7h10.3c1.9,0,3.7-0.3,5.2-1c1.5-0.6,2.9-1.6,4.1-2.7c1.2-1.2,2.2-2.5,3-4.1c0.8-1.6,1.4-3.3,1.8-5.1h0.8v13.8h-40.1v-0.9
		h5.8v-43h-5.8v-0.9H163.2z"/>
	<path class="st0" d="M173.6,41.7c0.1,0.5,0.2,1.2,0.4,2c0.2,0.8,0.5,1.7,0.9,2.6c0.4,0.9,0.9,1.9,1.5,2.9c0.6,1,1.4,1.9,2.2,2.7
		c1,1,1.9,1.7,2.8,2.2c0.9,0.5,1.8,0.9,2.6,1.1s1.6,0.4,2.3,0.4c0.7,0,1.4,0,2,0c2.2,0,4-0.3,5.5-1c1.4-0.7,2.5-1.5,3.4-2.5
		c0.8-1,1.4-2.1,1.7-3.2c0.3-1.1,0.5-2.1,0.5-2.9c0-1.5-0.4-2.8-1.1-3.8c-0.7-1-1.7-1.8-2.9-2.5c-1.2-0.7-2.6-1.2-4.1-1.7
		s-3.1-0.9-4.8-1.4c-1.6-0.5-3.2-1-4.8-1.7c-1.5-0.6-2.9-1.5-4.1-2.5c-1.2-1-2.2-2.3-2.9-3.8c-0.7-1.5-1.1-3.4-1.1-5.7
		c0-1.7,0.4-3.3,1.1-4.8c0.8-1.5,1.8-2.9,3.1-4.1c1.3-1.2,2.9-2.2,4.8-2.9c1.9-0.7,3.9-1.1,6.1-1.1c1.4,0,2.6,0.1,3.6,0.4
		c1,0.3,2,0.5,2.8,0.8c0.8,0.3,1.5,0.5,2.1,0.8c0.6,0.2,1.2,0.4,1.7,0.4c0.6,0,1-0.1,1.2-0.3s0.4-0.5,0.6-1h1v11.9h-0.8
		c-0.5-1.5-1-2.9-1.6-4.3c-0.6-1.4-1.3-2.7-2.2-3.9c-0.9-1.2-2-2.1-3.3-2.8c-1.3-0.7-3-1.1-5.1-1.1c-1.7,0-3.2,0.2-4.4,0.7
		c-1.3,0.5-2.4,1.1-3.2,1.8c-0.9,0.8-1.5,1.6-2,2.5c-0.5,0.9-0.7,1.9-0.7,2.8c0,1.5,0.4,2.7,1.2,3.6c0.8,1,1.8,1.8,3,2.5
		s2.7,1.3,4.3,1.8c1.6,0.5,3.3,1,5,1.6c1.7,0.5,3.3,1.1,5,1.8c1.6,0.6,3,1.5,4.3,2.5c1.3,1,2.3,2.2,3,3.6c0.8,1.4,1.2,3.2,1.2,5.3
		c0,2.1-0.4,4-1.3,5.8s-2,3.5-3.5,4.8c-1.5,1.4-3.4,2.5-5.5,3.3c-2.1,0.8-4.5,1.2-7.1,1.2c-1.3,0-2.6-0.1-3.9-0.4
		c-1.3-0.2-2.5-0.5-3.6-0.8c-1.1-0.3-2.1-0.5-3-0.8c-0.9-0.3-1.5-0.4-1.9-0.4c-0.6,0-1,0.1-1.3,0.3s-0.5,0.6-0.7,1.2h-1V41.7H173.6z
		"/>
	<path class="st0" d="M211.8,41.7c0.1,0.5,0.2,1.2,0.4,2c0.2,0.8,0.5,1.7,0.9,2.6c0.4,0.9,0.9,1.9,1.5,2.9c0.6,1,1.4,1.9,2.2,2.7
		c1,1,1.9,1.7,2.8,2.2c0.9,0.5,1.8,0.9,2.6,1.1s1.6,0.4,2.3,0.4c0.7,0,1.4,0,2,0c2.2,0,4-0.3,5.5-1c1.4-0.7,2.5-1.5,3.4-2.5
		c0.8-1,1.4-2.1,1.7-3.2c0.3-1.1,0.5-2.1,0.5-2.9c0-1.5-0.4-2.8-1.1-3.8c-0.7-1-1.7-1.8-2.9-2.5c-1.2-0.7-2.6-1.2-4.1-1.7
		s-3.1-0.9-4.8-1.4c-1.6-0.5-3.2-1-4.8-1.7c-1.5-0.6-2.9-1.5-4.1-2.5c-1.2-1-2.2-2.3-2.9-3.8c-0.7-1.5-1.1-3.4-1.1-5.7
		c0-1.7,0.4-3.3,1.1-4.8c0.8-1.5,1.8-2.9,3.1-4.1c1.3-1.2,2.9-2.2,4.8-2.9c1.9-0.7,3.9-1.1,6.1-1.1c1.4,0,2.6,0.1,3.6,0.4
		c1,0.3,2,0.5,2.8,0.8c0.8,0.3,1.5,0.5,2.1,0.8c0.6,0.2,1.2,0.4,1.7,0.4c0.6,0,1-0.1,1.2-0.3s0.4-0.5,0.6-1h1v11.9h-0.8
		c-0.5-1.5-1-2.9-1.6-4.3c-0.6-1.4-1.3-2.7-2.2-3.9c-0.9-1.2-2-2.1-3.3-2.8c-1.3-0.7-3-1.1-5.1-1.1c-1.7,0-3.2,0.2-4.4,0.7
		c-1.3,0.5-2.4,1.1-3.2,1.8c-0.9,0.8-1.5,1.6-2,2.5c-0.5,0.9-0.7,1.9-0.7,2.8c0,1.5,0.4,2.7,1.2,3.6c0.8,1,1.8,1.8,3,2.5
		s2.7,1.3,4.3,1.8c1.6,0.5,3.3,1,5,1.6c1.7,0.5,3.3,1.1,5,1.8c1.6,0.6,3,1.5,4.3,2.5c1.3,1,2.3,2.2,3,3.6c0.8,1.4,1.2,3.2,1.2,5.3
		c0,2.1-0.4,4-1.3,5.8s-2,3.5-3.5,4.8c-1.5,1.4-3.4,2.5-5.5,3.3c-2.1,0.8-4.5,1.2-7.1,1.2c-1.3,0-2.6-0.1-3.9-0.4
		c-1.3-0.2-2.5-0.5-3.6-0.8c-1.1-0.3-2.1-0.5-3-0.8c-0.9-0.3-1.5-0.4-1.9-0.4c-0.6,0-1,0.1-1.3,0.3s-0.5,0.6-0.7,1.2h-1V41.7H211.8z
		"/>
	<path class="st0" d="M267.9,10.9v0.9h-5.8V40c0,2,0.1,3.9,0.3,5.7s0.6,3.5,1.3,5c0.7,1.5,1.7,2.6,3.1,3.5c1.4,0.9,3.2,1.4,5.5,1.4
		c2.3,0,4.2-0.3,5.7-0.8s2.8-1.2,3.8-2.1s1.8-1.8,2.3-2.9c0.5-1.1,0.9-2.1,1.2-3.2c0.3-1.1,0.4-2.1,0.4-3c0-0.9,0.1-1.7,0.1-2.4
		V11.8h-5.7v-0.9h12.6v0.9h-5.8v29.5c0,0.7,0,1.5-0.1,2.5c0,1-0.2,2.1-0.5,3.2s-0.7,2.3-1.3,3.4s-1.4,2.1-2.6,3
		c-1.1,0.9-2.6,1.6-4.3,2.2c-1.7,0.6-3.8,0.8-6.3,0.8c-4.1,0-7.3-0.4-9.8-1.3s-4.4-2.1-5.7-3.5c-1.3-1.4-2.2-3.1-2.6-4.9
		c-0.4-1.8-0.6-3.7-0.6-5.6V11.8h-5.8v-0.9H267.9z"/>
	<path class="st0" d="M317.4,54.8v0.9h-20.7v-0.9h5.8v-43h-5.8v-0.9h5.8c2.1,0,4.3,0,6.4-0.1c2.1-0.1,4.3-0.1,6.4-0.1
		c1.9,0,3.9,0.2,6.1,0.5s4.2,0.9,6,1.8c1.8,0.9,3.4,2.1,4.6,3.6c1.2,1.5,1.9,3.5,1.9,5.9c0,1.6-0.4,3.2-1.2,4.6
		c-0.8,1.4-2,2.7-3.6,3.8s-3.7,1.9-6.2,2.5c-2.5,0.6-5.4,0.9-8.7,0.9h-2.6v20.4H317.4z M313.6,33.5c3.6,0,6.1-0.8,7.7-2.4
		c1.6-1.6,2.4-4.3,2.4-8.2c0-3.6-0.7-6.4-2.1-8.4c-1.4-1.9-3.9-2.9-7.5-2.9c-0.5,0-0.9,0-1.3,0.1c-0.4,0-0.8,0.1-1.1,0.1v21.7H313.6
		z"/>
	<path class="st0" d="M340.8,41.7c0.1,0.5,0.2,1.2,0.4,2c0.2,0.8,0.5,1.7,0.9,2.6c0.4,0.9,0.9,1.9,1.5,2.9c0.6,1,1.4,1.9,2.2,2.7
		c1,1,1.9,1.7,2.8,2.2c0.9,0.5,1.8,0.9,2.6,1.1c0.8,0.2,1.6,0.4,2.3,0.4s1.4,0,2,0c2.2,0,4-0.3,5.5-1c1.4-0.7,2.5-1.5,3.4-2.5
		s1.4-2.1,1.7-3.2c0.3-1.1,0.5-2.1,0.5-2.9c0-1.5-0.4-2.8-1.1-3.8c-0.7-1-1.7-1.8-2.9-2.5c-1.2-0.7-2.6-1.2-4.1-1.7
		c-1.5-0.5-3.1-0.9-4.8-1.4c-1.6-0.5-3.2-1-4.8-1.7c-1.5-0.6-2.9-1.5-4.1-2.5c-1.2-1-2.2-2.3-2.9-3.8s-1.1-3.4-1.1-5.7
		c0-1.7,0.4-3.3,1.1-4.8c0.8-1.5,1.8-2.9,3.1-4.1s2.9-2.2,4.8-2.9c1.9-0.7,3.9-1.1,6.1-1.1c1.4,0,2.6,0.1,3.6,0.4
		c1,0.3,2,0.5,2.8,0.8c0.8,0.3,1.5,0.5,2.1,0.8c0.6,0.2,1.2,0.4,1.7,0.4c0.6,0,1-0.1,1.2-0.3s0.4-0.5,0.6-1h1v11.9H368
		c-0.5-1.5-1-2.9-1.6-4.3c-0.6-1.4-1.3-2.7-2.2-3.9c-0.9-1.2-2-2.1-3.3-2.8c-1.3-0.7-3-1.1-5.1-1.1c-1.7,0-3.2,0.2-4.4,0.7
		s-2.4,1.1-3.2,1.8c-0.9,0.8-1.5,1.6-2,2.5c-0.5,0.9-0.7,1.9-0.7,2.8c0,1.5,0.4,2.7,1.2,3.6c0.8,1,1.8,1.8,3,2.5
		c1.3,0.7,2.7,1.3,4.3,1.8c1.6,0.5,3.3,1,5,1.6c1.7,0.5,3.3,1.1,5,1.8c1.6,0.6,3,1.5,4.3,2.5c1.3,1,2.3,2.2,3,3.6
		c0.8,1.4,1.2,3.2,1.2,5.3c0,2.1-0.4,4-1.3,5.8c-0.8,1.8-2,3.5-3.5,4.8c-1.5,1.4-3.4,2.5-5.5,3.3c-2.1,0.8-4.5,1.2-7.1,1.2
		c-1.3,0-2.6-0.1-3.9-0.4c-1.3-0.2-2.5-0.5-3.6-0.8c-1.1-0.3-2.1-0.5-3-0.8c-0.9-0.3-1.5-0.4-1.9-0.4c-0.6,0-1,0.1-1.3,0.3
		c-0.3,0.2-0.5,0.6-0.7,1.2h-1V41.7H340.8z"/>
</g>
</svg>
