<svg xmlns="http://www.w3.org/2000/svg" xmlns:xlink="http://www.w3.org/1999/xlink" xmlns:a="http://ns.adobe.com/AdobeSVGViewerExtensions/3.0/" version="1.1" x="0px" y="0px" width="292px" height="76px" viewBox="0 0 292 76" overflow="visible" enable-background="new 0 0 292 76" xml:space="preserve">
<defs>
</defs>
<path xmlns="http://www.w3.org/2000/svg" class="log-c" fill="#A58242" d="M40.058,56.425H17.885c-1.367,0-3.063-0.097-5.086-0.287c-2.025-0.192-3.979-0.808-5.867-1.847  c-1.887-1.039-3.515-2.666-4.881-4.881C0.683,47.196,0,44.062,0,40.015c0-1.422,0.122-2.899,0.369-4.431  c0.246-1.532,0.697-2.927,1.353-4.184c0.657-1.259,1.559-2.298,2.707-3.119c1.15-0.82,2.598-1.23,4.35-1.23  c0.273,0,0.725,0.027,1.353,0.083c0.629,0.053,1.273,0.286,1.928,0.696c0.656,0.41,1.244,1.053,1.765,1.929  c0.519,0.874,0.779,2.133,0.779,3.774c0,0.437-0.041,0.943-0.122,1.518c-0.083,0.574-0.26,1.12-0.533,1.641  c-0.276,0.519-0.671,0.956-1.191,1.313c-0.52,0.355-1.218,0.533-2.092,0.533c-0.384,0-0.876-0.055-1.477-0.164  c-0.604-0.11-1.231-0.246-1.887-0.41c-0.657-0.164-1.259-0.302-1.805-0.411c-0.547-0.11-0.931-0.164-1.149-0.164  c-0.821,0-1.45,0.15-1.887,0.452c-0.438,0.3-0.753,0.642-0.943,1.025c-0.194,0.382-0.301,0.779-0.329,1.189  C1.161,40.468,1.148,40.781,1.148,41c0,0.929,0.176,1.626,0.534,2.093c0.354,0.463,0.806,0.805,1.354,1.024  c0.546,0.219,1.133,0.341,1.763,0.37c0.628,0.025,1.189,0.041,1.681,0.041h33.578V56.425z"/>
<path xmlns="http://www.w3.org/2000/svg" class="log-c" fill="#A58242" d="M19.221,40.058V17.886c0-1.368,0.096-3.063,0.287-5.087c0.192-2.024,0.807-3.978,1.846-5.866  c1.04-1.887,2.667-3.515,4.882-4.881C28.451,0.684,31.583,0,35.631,0c1.423,0,2.9,0.123,4.43,0.369  c1.533,0.246,2.928,0.698,4.185,1.354c1.259,0.656,2.297,1.558,3.118,2.707c0.82,1.149,1.231,2.597,1.231,4.35  c0,0.273-0.027,0.724-0.082,1.352c-0.054,0.629-0.288,1.273-0.698,1.929c-0.41,0.656-1.052,1.244-1.928,1.764  c-0.874,0.519-2.133,0.779-3.774,0.779c-0.437,0-0.944-0.04-1.518-0.122c-0.574-0.083-1.12-0.26-1.641-0.533  c-0.519-0.276-0.957-0.671-1.313-1.19c-0.355-0.521-0.533-1.219-0.533-2.093c0-0.383,0.055-0.876,0.164-1.477  c0.11-0.603,0.246-1.231,0.41-1.886c0.164-0.658,0.301-1.26,0.411-1.806c0.11-0.547,0.163-0.931,0.163-1.149  c0-0.82-0.15-1.449-0.451-1.887c-0.3-0.438-0.642-0.753-1.025-0.943C36.397,1.325,36,1.217,35.59,1.189  c-0.411-0.028-0.724-0.041-0.944-0.041c-0.929,0-1.626,0.177-2.092,0.534c-0.464,0.355-0.806,0.806-1.026,1.355  c-0.218,0.545-0.34,1.132-0.369,1.763c-0.027,0.627-0.041,1.189-0.041,1.681v33.577H19.221z"/>
<path xmlns="http://www.w3.org/2000/svg" class="log-c" fill="#A58242" d="M35.588,19.221H57.76c1.368,0,3.063,0.097,5.087,0.287c2.024,0.193,3.979,0.808,5.867,1.847  c1.887,1.039,3.514,2.666,4.881,4.881c1.367,2.215,2.051,5.348,2.051,9.395c0,1.423-0.122,2.9-0.369,4.432  c-0.246,1.531-0.697,2.927-1.353,4.184c-0.657,1.259-1.559,2.298-2.707,3.119c-1.15,0.82-2.598,1.23-4.351,1.23  c-0.273,0-0.724-0.027-1.352-0.082c-0.629-0.055-1.273-0.287-1.928-0.697c-0.656-0.41-1.245-1.053-1.765-1.93  c-0.519-0.873-0.779-2.133-0.779-3.773c0-0.438,0.041-0.943,0.122-1.518c0.083-0.574,0.26-1.121,0.533-1.642  c0.276-0.519,0.671-0.956,1.191-1.313c0.52-0.355,1.218-0.533,2.092-0.533c0.384,0,0.876,0.055,1.477,0.165  c0.604,0.109,1.231,0.245,1.887,0.409c0.657,0.164,1.259,0.302,1.805,0.411c0.547,0.11,0.931,0.164,1.149,0.164  c0.821,0,1.45-0.15,1.887-0.451c0.438-0.301,0.753-0.643,0.943-1.026c0.194-0.382,0.301-0.779,0.329-1.189  c0.028-0.412,0.041-0.725,0.041-0.945c0-0.929-0.176-1.626-0.534-2.092c-0.354-0.464-0.806-0.806-1.354-1.025  c-0.546-0.219-1.133-0.341-1.763-0.37c-0.628-0.026-1.189-0.041-1.682-0.041H35.588V19.221z"/>
<path xmlns="http://www.w3.org/2000/svg" class="log-c" fill="#A58242" d="M56.425,35.588V57.76c0,1.368-0.096,3.063-0.287,5.087c-0.192,2.023-0.808,3.979-1.847,5.866  c-1.039,1.887-2.666,3.515-4.881,4.881c-2.215,1.368-5.348,2.052-9.395,2.052c-1.423,0-2.9-0.122-4.431-0.369  c-1.532-0.246-2.927-0.697-4.184-1.354c-1.259-0.656-2.297-1.559-3.119-2.707c-0.82-1.149-1.23-2.598-1.23-4.35  c0-0.273,0.027-0.725,0.082-1.353c0.054-0.629,0.288-1.272,0.698-1.929c0.41-0.655,1.052-1.244,1.928-1.764  c0.874-0.52,2.133-0.779,3.774-0.779c0.437,0,0.943,0.039,1.518,0.121c0.574,0.084,1.12,0.261,1.641,0.533  c0.519,0.276,0.957,0.672,1.313,1.19c0.355,0.521,0.533,1.219,0.533,2.093c0,0.383-0.055,0.876-0.164,1.477  c-0.11,0.604-0.246,1.231-0.41,1.888c-0.164,0.657-0.302,1.259-0.411,1.805c-0.11,0.548-0.164,0.931-0.164,1.149  c0,0.82,0.15,1.449,0.452,1.887c0.3,0.438,0.642,0.753,1.025,0.943c0.382,0.193,0.78,0.301,1.19,0.328  c0.411,0.029,0.724,0.041,0.944,0.041c0.929,0,1.626-0.176,2.092-0.533c0.464-0.354,0.806-0.807,1.025-1.355  c0.219-0.545,0.341-1.132,0.37-1.762c0.027-0.628,0.041-1.189,0.041-1.682V35.588H56.425z"/>
</svg>