<svg id="Layer_1" width="50" data-name="Layer 1" xmlns="http://www.w3.org/2000/svg" viewBox="0 0 75.65 75.65">
    <defs>
        <style>
            .cls-1{fill:#e36335;}
        </style>
    </defs>
    <title>Untitled-2</title>
    <path class="cls-1"
          d="M40.06,56.42H17.89c-1.37,0-3.07-.09-5.09-.28a15,15,0,0,1-5.87-1.85,13.48,13.48,0,0,1-4.88-4.88C.68,47.2,0,44.06,0,40a27.57,27.57,0,0,1,.37-4.43A14,14,0,0,1,1.72,31.4a8.77,8.77,0,0,1,2.71-3.12,7.31,7.31,0,0,1,4.35-1.23c.27,0,.72,0,1.35.08a4.45,4.45,0,0,1,1.93.7,5.46,5.46,0,0,1,1.76,1.93,7.44,7.44,0,0,1,.78,3.77,11.11,11.11,0,0,1-.12,1.52A5,5,0,0,1,14,36.69,3.74,3.74,0,0,1,12.76,38a3.7,3.7,0,0,1-2.09.53,8.58,8.58,0,0,1-1.48-.17C8.59,38.26,8,38.13,7.3,38s-1.26-.3-1.8-.41a6.75,6.75,0,0,0-1.15-.16,3.34,3.34,0,0,0-1.89.45,2.68,2.68,0,0,0-.94,1,3,3,0,0,0-.33,1.19c0,.41,0,.72,0,.94a3.37,3.37,0,0,0,.53,2.09,3.15,3.15,0,0,0,1.36,1,5.31,5.31,0,0,0,1.76.37c.63,0,1.19,0,1.68,0H40.06Z"/>
    <path class="cls-1"
          d="M19.22,40.06V17.89c0-1.37.1-3.07.29-5.09a15.11,15.11,0,0,1,1.84-5.87,13.51,13.51,0,0,1,4.89-4.88Q29.56,0,35.63,0a27.48,27.48,0,0,1,4.43.37,14,14,0,0,1,4.19,1.35,8.74,8.74,0,0,1,3.11,2.71A7.31,7.31,0,0,1,48.6,8.78q0,.41-.09,1.35a4.21,4.21,0,0,1-.7,1.93,5.42,5.42,0,0,1-1.92,1.76,7.5,7.5,0,0,1-3.78.78,11.35,11.35,0,0,1-1.52-.12A5.08,5.08,0,0,1,39,14a3.71,3.71,0,0,1-1.31-1.19,3.7,3.7,0,0,1-.53-2.09,8.42,8.42,0,0,1,.16-1.48c.11-.6.25-1.23.41-1.89S38,6,38.09,5.5a7.09,7.09,0,0,0,.17-1.15,3.26,3.26,0,0,0-.46-1.89,2.73,2.73,0,0,0-1-.94,3.16,3.16,0,0,0-1.19-.33c-.41,0-.72,0-.94,0a3.49,3.49,0,0,0-2.1.53,3.21,3.21,0,0,0-1,1.36,5.31,5.31,0,0,0-.37,1.76c0,.63,0,1.19,0,1.68V40.06Z"/>
    <path class="cls-1"
          d="M35.59,19.22H57.76c1.37,0,3.06.1,5.09.29a14.92,14.92,0,0,1,5.86,1.85,13.25,13.25,0,0,1,4.88,4.88q2.05,3.32,2.06,9.39a28.67,28.67,0,0,1-.37,4.43,13.75,13.75,0,0,1-1.36,4.19,8.74,8.74,0,0,1-2.7,3.12,7.31,7.31,0,0,1-4.35,1.23c-.28,0-.73,0-1.36-.09a4.27,4.27,0,0,1-1.92-.69,5.57,5.57,0,0,1-1.77-1.93A7.5,7.5,0,0,1,61,42.11a11.09,11.09,0,0,1,.12-1.51A5.16,5.16,0,0,1,61.7,39,3.41,3.41,0,0,1,65,37.11a8.52,8.52,0,0,1,1.48.16c.6.11,1.23.25,1.88.41s1.26.3,1.81.41a7.09,7.09,0,0,0,1.15.17,3.34,3.34,0,0,0,1.89-.45,2.84,2.84,0,0,0,.94-1,3.16,3.16,0,0,0,.33-1.19c0-.41,0-.72,0-.94a3.42,3.42,0,0,0-.54-2.1,3.12,3.12,0,0,0-1.35-1,5.36,5.36,0,0,0-1.76-.37c-.63,0-1.19,0-1.68,0H35.59Z"/>
    <path class="cls-1"
          d="M56.42,35.59V57.76c0,1.37-.09,3.06-.28,5.09a14.92,14.92,0,0,1-1.85,5.86,13.4,13.4,0,0,1-4.88,4.88q-3.33,2.05-9.4,2.06a28.67,28.67,0,0,1-4.43-.37,13.69,13.69,0,0,1-4.18-1.36,8.74,8.74,0,0,1-3.12-2.7,7.31,7.31,0,0,1-1.23-4.35c0-.28,0-.73.08-1.36a4.45,4.45,0,0,1,.7-1.93,5.56,5.56,0,0,1,1.93-1.76A7.44,7.44,0,0,1,33.53,61a11.11,11.11,0,0,1,1.52.12,5.25,5.25,0,0,1,1.64.53A3.84,3.84,0,0,1,38,62.88a3.73,3.73,0,0,1,.53,2.1,8.59,8.59,0,0,1-.17,1.47c-.11.61-.24,1.24-.41,1.89s-.3,1.26-.41,1.81a6.75,6.75,0,0,0-.16,1.15,3.28,3.28,0,0,0,.45,1.88,2.71,2.71,0,0,0,1,.95,3.16,3.16,0,0,0,1.19.33l.94,0A3.37,3.37,0,0,0,43.09,74a3.06,3.06,0,0,0,1-1.35,5.36,5.36,0,0,0,.37-1.76c0-.63,0-1.19,0-1.69V35.59Z"/>
</svg>