<svg id="Layer_1" data-name="Layer 1" xmlns="http://www.w3.org/2000/svg" viewBox="0 0 372.44 75.65"><defs><style>.cls-1{fill:#966e31;}.cls-2{fill:#fff;}</style></defs><title>Jessups-Logo-Caps-5</title><path class="cls-1" d="M40.06,56.43H17.89c-1.37,0-3.07-.1-5.09-.29a15,15,0,0,1-5.87-1.85,13.48,13.48,0,0,1-4.88-4.88Q0,46.08,0,40a27.6,27.6,0,0,1,.37-4.44A13.68,13.68,0,0,1,1.72,31.4a8.77,8.77,0,0,1,2.71-3.12,7.31,7.31,0,0,1,4.35-1.23c.27,0,.72,0,1.35.08a4.45,4.45,0,0,1,1.93.7,5.46,5.46,0,0,1,1.76,1.93,7.44,7.44,0,0,1,.78,3.77,11.11,11.11,0,0,1-.12,1.52A5,5,0,0,1,14,36.69,3.74,3.74,0,0,1,12.76,38a3.7,3.7,0,0,1-2.09.53,8.58,8.58,0,0,1-1.48-.17C8.59,38.26,8,38.13,7.3,38s-1.26-.3-1.8-.41a6.75,6.75,0,0,0-1.15-.16,3.34,3.34,0,0,0-1.89.45,2.68,2.68,0,0,0-.94,1,3,3,0,0,0-.33,1.19c0,.41,0,.72,0,.94a3.37,3.37,0,0,0,.53,2.09,3.15,3.15,0,0,0,1.36,1,5.31,5.31,0,0,0,1.76.37c.63,0,1.19,0,1.68,0H40.06Z"/><path class="cls-1" d="M19.22,40.06V17.89c0-1.37.1-3.07.29-5.09a15.11,15.11,0,0,1,1.84-5.87,13.51,13.51,0,0,1,4.89-4.88Q29.56,0,35.63,0a27.48,27.48,0,0,1,4.43.37,13.74,13.74,0,0,1,4.19,1.35,8.82,8.82,0,0,1,3.11,2.71,7.31,7.31,0,0,1,1.23,4.35c0,.27,0,.72-.08,1.35a4.21,4.21,0,0,1-.7,1.93,5.51,5.51,0,0,1-1.92,1.76,7.5,7.5,0,0,1-3.78.78,11.35,11.35,0,0,1-1.52-.12A5.08,5.08,0,0,1,39,14a3.71,3.71,0,0,1-1.31-1.19,3.7,3.7,0,0,1-.53-2.09,8.42,8.42,0,0,1,.16-1.48c.11-.6.25-1.23.41-1.89S38,6,38.09,5.5a7.09,7.09,0,0,0,.17-1.15,3.34,3.34,0,0,0-.45-1.89,2.83,2.83,0,0,0-1-.94,3,3,0,0,0-1.19-.33c-.41,0-.72,0-.94,0a3.42,3.42,0,0,0-2.1.53,3.21,3.21,0,0,0-1,1.36,5.31,5.31,0,0,0-.37,1.76c0,.63,0,1.19,0,1.68V40.06Z"/><path class="cls-1" d="M35.59,19.22H57.76c1.37,0,3.06.1,5.09.29a15.07,15.07,0,0,1,5.86,1.84,13.36,13.36,0,0,1,4.88,4.89q2.05,3.32,2.06,9.39a28.67,28.67,0,0,1-.37,4.43,13.75,13.75,0,0,1-1.36,4.19,8.8,8.8,0,0,1-2.7,3.11,7.31,7.31,0,0,1-4.35,1.23c-.28,0-.73,0-1.36-.08a4.18,4.18,0,0,1-1.92-.7,5.53,5.53,0,0,1-1.77-1.92A7.5,7.5,0,0,1,61,42.11a11.35,11.35,0,0,1,.12-1.52A5.1,5.1,0,0,1,61.7,39a3.62,3.62,0,0,1,1.19-1.31A3.7,3.7,0,0,1,65,37.11a8.52,8.52,0,0,1,1.48.16c.6.11,1.23.25,1.88.41s1.26.3,1.81.41a7.09,7.09,0,0,0,1.15.17,3.34,3.34,0,0,0,1.89-.45,2.92,2.92,0,0,0,.94-1,3.16,3.16,0,0,0,.33-1.19c0-.41,0-.72,0-.94a3.42,3.42,0,0,0-.54-2.1,3.12,3.12,0,0,0-1.35-1,5.36,5.36,0,0,0-1.76-.37c-.63,0-1.19,0-1.68,0H35.59Z"/><path class="cls-2" d="M56.43,35.59V57.76c0,1.37-.1,3.06-.29,5.09a14.92,14.92,0,0,1-1.85,5.86,13.33,13.33,0,0,1-4.88,4.88Q46.08,75.64,40,75.65a28.79,28.79,0,0,1-4.44-.37,13.69,13.69,0,0,1-4.18-1.36,8.74,8.74,0,0,1-3.12-2.7,7.31,7.31,0,0,1-1.23-4.35c0-.28,0-.73.08-1.36a4.42,4.42,0,0,1,.7-1.92,5.48,5.48,0,0,1,1.93-1.77A7.44,7.44,0,0,1,33.53,61a11.11,11.11,0,0,1,1.52.12,5,5,0,0,1,1.64.54A3.65,3.65,0,0,1,38,62.89,3.7,3.7,0,0,1,38.54,65a8.69,8.69,0,0,1-.17,1.48c-.11.6-.24,1.23-.41,1.88s-.3,1.26-.41,1.81a6.75,6.75,0,0,0-.16,1.15,3.34,3.34,0,0,0,.45,1.89,2.76,2.76,0,0,0,1,.94,3.16,3.16,0,0,0,1.19.33l.94,0A3.37,3.37,0,0,0,43.09,74a3.06,3.06,0,0,0,1-1.35,5.36,5.36,0,0,0,.37-1.76c0-.63,0-1.19,0-1.68V35.59Z"/><path class="cls-1" d="M115.58,46.74a11.26,11.26,0,0,1-1.41,4.49A10.29,10.29,0,0,1,110.43,55a13.68,13.68,0,0,1-7.19,1.57,21.13,21.13,0,0,1-3.39-.28,10.55,10.55,0,0,1-3.2-1,6.63,6.63,0,0,1-2.39-2.07,5.58,5.58,0,0,1-.94-3.33c0-.21,0-.56.06-1a3.41,3.41,0,0,1,.53-1.48A4.35,4.35,0,0,1,95.39,46a5.8,5.8,0,0,1,2.89-.59,8.76,8.76,0,0,1,1.16.09,3.8,3.8,0,0,1,1.26.41,2.71,2.71,0,0,1,1,.91,2.81,2.81,0,0,1,.41,1.6A6,6,0,0,1,102,49.5c-.08.46-.18,1-.31,1.45s-.23,1-.31,1.38a4.79,4.79,0,0,0-.13.88,2.51,2.51,0,0,0,.35,1.44,2.14,2.14,0,0,0,.78.73,2.3,2.3,0,0,0,.91.25l.73,0a2.57,2.57,0,0,0,1.6-.41,2.45,2.45,0,0,0,.78-1,3.91,3.91,0,0,0,.28-1.35c0-.48,0-.91,0-1.28V11.81h-5.78v-.88h20.66v.88H115.8v31C115.8,43.89,115.73,45.19,115.58,46.74Z"/><path class="cls-1" d="M163.23,10.93V21.67h-.82a22.78,22.78,0,0,0-1.07-2.73,13.55,13.55,0,0,0-2.1-3.24A12.54,12.54,0,0,0,155.75,13a10.81,10.81,0,0,0-5.21-1.16h-10V31.22h3.52a10.26,10.26,0,0,0,3.92-.66,7.07,7.07,0,0,0,2.67-1.88,10.23,10.23,0,0,0,1.76-3,22.57,22.57,0,0,0,1.13-3.86h.82V41.4h-.82c-.29-1.22-.64-2.39-1-3.52a10.38,10.38,0,0,0-1.61-3,7.37,7.37,0,0,0-2.48-2,8,8,0,0,0-3.67-.75h-4.21V54.78h10.3a13.29,13.29,0,0,0,5.21-1,13,13,0,0,0,4.12-2.74,15.48,15.48,0,0,0,3-4.11A22.21,22.21,0,0,0,165,41.9h.82V55.66H125.66v-.88h5.78v-43h-5.78v-.88Z"/><path class="cls-1" d="M173.59,41.71c.08.5.23,1.16.44,2a18.48,18.48,0,0,0,.91,2.64,22.23,22.23,0,0,0,1.5,2.89A13.46,13.46,0,0,0,178.68,52a12.68,12.68,0,0,0,2.79,2.2,12.1,12.1,0,0,0,2.58,1.1,9.51,9.51,0,0,0,2.32.38l2,0a12.5,12.5,0,0,0,5.46-1,9.61,9.61,0,0,0,3.36-2.54A9.18,9.18,0,0,0,199,48.91a10.2,10.2,0,0,0,.51-2.93,6.38,6.38,0,0,0-1.1-3.83,8.91,8.91,0,0,0-2.93-2.51,20.67,20.67,0,0,0-4.14-1.7l-4.77-1.41a45.11,45.11,0,0,1-4.78-1.7,15.68,15.68,0,0,1-4.14-2.51,11.37,11.37,0,0,1-2.92-3.8,12.79,12.79,0,0,1-1.1-5.65A10.84,10.84,0,0,1,174.72,18a13.25,13.25,0,0,1,3.14-4.12,16.12,16.12,0,0,1,4.8-2.89,16.52,16.52,0,0,1,6.06-1.1,15.8,15.8,0,0,1,3.65.38c1,.25,2,.51,2.76.78s1.5.54,2.1.79a4.48,4.48,0,0,0,1.67.38,1.67,1.67,0,0,0,1.16-.29,3.22,3.22,0,0,0,.6-1h1V22.87h-.81c-.51-1.47-1-2.91-1.6-4.34a16.31,16.31,0,0,0-2.17-3.86,10,10,0,0,0-3.33-2.8,10.82,10.82,0,0,0-5.09-1.07,13.08,13.08,0,0,0-4.43.69A10.4,10.4,0,0,0,181,13.32a8,8,0,0,0-2,2.51,6.25,6.25,0,0,0-.69,2.83,5.65,5.65,0,0,0,1.16,3.64,10,10,0,0,0,3,2.48,23.07,23.07,0,0,0,4.3,1.79l5,1.57c1.7.55,3.35,1.14,5,1.79A17.33,17.33,0,0,1,201,32.41a11.92,11.92,0,0,1,3,3.65,10.85,10.85,0,0,1,1.16,5.28A14.06,14.06,0,0,1,204,47.18,14.75,14.75,0,0,1,200.44,52,17.27,17.27,0,0,1,195,55.31a19.37,19.37,0,0,1-7.06,1.23,20,20,0,0,1-3.86-.38c-1.28-.25-2.48-.51-3.58-.78s-2.1-.54-3-.79a7.69,7.69,0,0,0-1.91-.38,2.12,2.12,0,0,0-1.26.29,2.51,2.51,0,0,0-.69,1.16h-1V41.71Z"/><path class="cls-1" d="M211.84,41.71c.08.5.23,1.16.44,2a18.48,18.48,0,0,0,.91,2.64,21.16,21.16,0,0,0,1.51,2.89A13.08,13.08,0,0,0,216.93,52a12.68,12.68,0,0,0,2.79,2.2,12.1,12.1,0,0,0,2.58,1.1,9.51,9.51,0,0,0,2.32.38l2,0a12.58,12.58,0,0,0,5.47-1,9.8,9.8,0,0,0,3.36-2.54,9.31,9.31,0,0,0,1.72-3.17,10.2,10.2,0,0,0,.51-2.93,6.38,6.38,0,0,0-1.1-3.83,9,9,0,0,0-2.92-2.51,21,21,0,0,0-4.15-1.7l-4.77-1.41a45.11,45.11,0,0,1-4.78-1.7,15.68,15.68,0,0,1-4.14-2.51,11.37,11.37,0,0,1-2.92-3.8,12.79,12.79,0,0,1-1.1-5.65A11,11,0,0,1,213,18a13.25,13.25,0,0,1,3.14-4.12,16.12,16.12,0,0,1,4.8-2.89A16.54,16.54,0,0,1,227,9.92a15.77,15.77,0,0,1,3.64.38c1,.25,2,.51,2.76.78s1.5.54,2.11.79a4.39,4.39,0,0,0,1.66.38,1.67,1.67,0,0,0,1.16-.29,3.22,3.22,0,0,0,.6-1h1V22.87h-.81c-.5-1.47-1-2.91-1.6-4.34a16.31,16.31,0,0,0-2.17-3.86,10,10,0,0,0-3.33-2.8,10.82,10.82,0,0,0-5.09-1.07,13.08,13.08,0,0,0-4.43.69,10.4,10.4,0,0,0-3.23,1.83,8,8,0,0,0-2,2.51,6.25,6.25,0,0,0-.69,2.83,5.65,5.65,0,0,0,1.16,3.64,10.14,10.14,0,0,0,3,2.48,23.07,23.07,0,0,0,4.3,1.79l5,1.57c1.7.55,3.35,1.14,5,1.79a17.15,17.15,0,0,1,4.31,2.48,11.92,11.92,0,0,1,3,3.65,10.85,10.85,0,0,1,1.16,5.28,13.9,13.9,0,0,1-1.25,5.84A14.75,14.75,0,0,1,238.69,52a17.34,17.34,0,0,1-5.46,3.29,19.47,19.47,0,0,1-7.07,1.23,20,20,0,0,1-3.86-.38c-1.28-.25-2.48-.51-3.58-.78s-2.1-.54-3-.79a7.69,7.69,0,0,0-1.91-.38,2.12,2.12,0,0,0-1.26.29,2.51,2.51,0,0,0-.69,1.16h-1V41.71Z"/><path class="cls-1" d="M267.93,10.93v.88h-5.78V40a56.78,56.78,0,0,0,.28,5.75,15.32,15.32,0,0,0,1.32,5,8.54,8.54,0,0,0,3.08,3.55,9.83,9.83,0,0,0,5.49,1.35,17.58,17.58,0,0,0,5.69-.79,11.48,11.48,0,0,0,3.8-2.07,9.43,9.43,0,0,0,2.32-2.89,13.86,13.86,0,0,0,1.19-3.2,16.49,16.49,0,0,0,.45-3c0-.94.06-1.73.06-2.35V11.81h-5.72v-.88h12.56v.88h-5.84V41.27q0,1-.06,2.55a15.49,15.49,0,0,1-.5,3.23,17.27,17.27,0,0,1-1.32,3.4,9.55,9.55,0,0,1-2.58,3,13.5,13.5,0,0,1-4.27,2.2,20.35,20.35,0,0,1-6.34.85,29.28,29.28,0,0,1-9.8-1.35,13.92,13.92,0,0,1-5.68-3.52,10.74,10.74,0,0,1-2.61-4.93,25.08,25.08,0,0,1-.63-5.59V11.81H247.2v-.88Z"/><path class="cls-1" d="M317.42,54.78v.88H296.76v-.88h5.77v-43h-5.77v-.88h5.77q3.21,0,6.41-.1c2.14-.06,4.27-.09,6.41-.09a43.47,43.47,0,0,1,6.09.47,21.54,21.54,0,0,1,6,1.76,12.86,12.86,0,0,1,4.62,3.58,9.19,9.19,0,0,1,1.85,5.94,9.52,9.52,0,0,1-1.19,4.62,10.69,10.69,0,0,1-3.65,3.76A20.33,20.33,0,0,1,323,33.42a35.63,35.63,0,0,1-8.73.94h-2.58V54.78Zm-3.83-21.3c3.56,0,6.13-.8,7.72-2.42s2.39-4.34,2.39-8.19c0-3.65-.69-6.43-2.07-8.36s-3.9-2.89-7.54-2.89q-.69,0-1.32.06l-1.13.13V33.48Z"/><path class="cls-1" d="M340.79,41.71c.08.5.23,1.16.44,2a18.48,18.48,0,0,0,.91,2.64,21.05,21.05,0,0,0,1.5,2.89A13.4,13.4,0,0,0,345.87,52a13,13,0,0,0,2.8,2.2,12.25,12.25,0,0,0,2.57,1.1,9.66,9.66,0,0,0,2.33.38l2,0a12.5,12.5,0,0,0,5.46-1,9.61,9.61,0,0,0,3.36-2.54,9.18,9.18,0,0,0,1.73-3.17,10.15,10.15,0,0,0,.5-2.93,6.31,6.31,0,0,0-1.1-3.83,8.77,8.77,0,0,0-2.92-2.51,20.67,20.67,0,0,0-4.14-1.7l-4.77-1.41a45.11,45.11,0,0,1-4.78-1.7,15.68,15.68,0,0,1-4.14-2.51,11.37,11.37,0,0,1-2.92-3.8,12.79,12.79,0,0,1-1.1-5.65A10.84,10.84,0,0,1,341.92,18a13.25,13.25,0,0,1,3.14-4.12,16.12,16.12,0,0,1,4.8-2.89,16.52,16.52,0,0,1,6.06-1.1,15.8,15.8,0,0,1,3.65.38q1.56.38,2.76.78c.8.28,1.5.54,2.1.79a4.48,4.48,0,0,0,1.67.38,1.69,1.69,0,0,0,1.16-.29,3.22,3.22,0,0,0,.6-1h1V22.87h-.81c-.51-1.47-1-2.91-1.61-4.34a15.94,15.94,0,0,0-2.16-3.86,10,10,0,0,0-3.33-2.8,10.82,10.82,0,0,0-5.09-1.07,13.08,13.08,0,0,0-4.43.69,10.29,10.29,0,0,0-3.23,1.83,8,8,0,0,0-2,2.51,6.25,6.25,0,0,0-.69,2.83,5.59,5.59,0,0,0,1.16,3.64,10,10,0,0,0,3,2.48,23.07,23.07,0,0,0,4.3,1.79l5,1.57c1.7.55,3.35,1.14,5,1.79a17.09,17.09,0,0,1,4.3,2.48,11.81,11.81,0,0,1,3,3.65,10.85,10.85,0,0,1,1.16,5.28,14.06,14.06,0,0,1-1.25,5.84A14.75,14.75,0,0,1,367.64,52a17.27,17.27,0,0,1-5.47,3.29,19.37,19.37,0,0,1-7.06,1.23,20.15,20.15,0,0,1-3.87-.38c-1.27-.25-2.47-.51-3.58-.78s-2.09-.54-3-.79a7.78,7.78,0,0,0-1.91-.38,2.12,2.12,0,0,0-1.26.29,2.51,2.51,0,0,0-.69,1.16h-1V41.71Z"/></svg>