<svg id="Layer_1" data-name="Layer 1" xmlns="http://www.w3.org/2000/svg" viewBox="0 0 372.27 75.65"><defs><style>.cls-1{fill:#966e31;}.cls-2{fill:#fff;}</style></defs><title>Jessups-Logo-Caps-Strapline-5</title><path class="cls-1" d="M40.06,56.43H17.89c-1.37,0-3.07-.1-5.09-.29a15,15,0,0,1-5.87-1.85,13.48,13.48,0,0,1-4.88-4.88Q0,46.08,0,40a27.6,27.6,0,0,1,.37-4.44A13.68,13.68,0,0,1,1.72,31.4a8.77,8.77,0,0,1,2.71-3.12,7.31,7.31,0,0,1,4.35-1.23c.27,0,.72,0,1.35.08a4.45,4.45,0,0,1,1.93.7,5.46,5.46,0,0,1,1.76,1.93,7.44,7.44,0,0,1,.78,3.77,11.11,11.11,0,0,1-.12,1.52A5,5,0,0,1,14,36.69,3.74,3.74,0,0,1,12.76,38a3.7,3.7,0,0,1-2.09.53,8.58,8.58,0,0,1-1.48-.17C8.59,38.26,8,38.13,7.3,38s-1.26-.3-1.8-.41a6.75,6.75,0,0,0-1.15-.16,3.34,3.34,0,0,0-1.89.45,2.68,2.68,0,0,0-.94,1,3,3,0,0,0-.33,1.19c0,.41,0,.72,0,.94a3.37,3.37,0,0,0,.53,2.09,3.15,3.15,0,0,0,1.36,1,5.31,5.31,0,0,0,1.76.37c.63,0,1.19,0,1.68,0H40.06Z"/><path class="cls-1" d="M19.22,40.06V17.89c0-1.37.1-3.07.29-5.09a15.11,15.11,0,0,1,1.84-5.87,13.51,13.51,0,0,1,4.89-4.88Q29.56,0,35.63,0a27.48,27.48,0,0,1,4.43.37,13.74,13.74,0,0,1,4.19,1.35,8.82,8.82,0,0,1,3.11,2.71,7.31,7.31,0,0,1,1.23,4.35c0,.27,0,.72-.08,1.35a4.21,4.21,0,0,1-.7,1.93,5.51,5.51,0,0,1-1.92,1.76,7.5,7.5,0,0,1-3.78.78,11.35,11.35,0,0,1-1.52-.12A5.08,5.08,0,0,1,39,14a3.71,3.71,0,0,1-1.31-1.19,3.7,3.7,0,0,1-.53-2.09,8.42,8.42,0,0,1,.16-1.48c.11-.6.25-1.23.41-1.89S38,6,38.09,5.5a7.09,7.09,0,0,0,.17-1.15,3.34,3.34,0,0,0-.45-1.89,2.83,2.83,0,0,0-1-.94,3,3,0,0,0-1.19-.33c-.41,0-.72,0-.94,0a3.42,3.42,0,0,0-2.1.53,3.21,3.21,0,0,0-1,1.36,5.31,5.31,0,0,0-.37,1.76c0,.63,0,1.19,0,1.68V40.06Z"/><path class="cls-1" d="M35.59,19.22H57.76c1.37,0,3.06.1,5.09.29a15.07,15.07,0,0,1,5.86,1.84,13.36,13.36,0,0,1,4.88,4.89q2.05,3.32,2.06,9.39a28.67,28.67,0,0,1-.37,4.43,13.75,13.75,0,0,1-1.36,4.19,8.8,8.8,0,0,1-2.7,3.11,7.31,7.31,0,0,1-4.35,1.23c-.28,0-.73,0-1.36-.08a4.18,4.18,0,0,1-1.92-.7,5.53,5.53,0,0,1-1.77-1.92A7.5,7.5,0,0,1,61,42.11a11.35,11.35,0,0,1,.12-1.52A5.1,5.1,0,0,1,61.7,39a3.62,3.62,0,0,1,1.19-1.31A3.7,3.7,0,0,1,65,37.11a8.52,8.52,0,0,1,1.48.16c.6.11,1.23.25,1.88.41s1.26.3,1.81.41a7.09,7.09,0,0,0,1.15.17,3.34,3.34,0,0,0,1.89-.45,2.92,2.92,0,0,0,.94-1,3.16,3.16,0,0,0,.33-1.19c0-.41,0-.72,0-.94a3.42,3.42,0,0,0-.54-2.1,3.12,3.12,0,0,0-1.35-1,5.36,5.36,0,0,0-1.76-.37c-.63,0-1.19,0-1.68,0H35.59Z"/><path class="cls-2" d="M56.43,35.59V57.76c0,1.37-.1,3.06-.29,5.09a14.92,14.92,0,0,1-1.85,5.86,13.33,13.33,0,0,1-4.88,4.88Q46.08,75.64,40,75.65a28.79,28.79,0,0,1-4.44-.37,13.69,13.69,0,0,1-4.18-1.36,8.74,8.74,0,0,1-3.12-2.7,7.31,7.31,0,0,1-1.23-4.35c0-.28,0-.73.08-1.36a4.42,4.42,0,0,1,.7-1.92,5.48,5.48,0,0,1,1.93-1.77A7.44,7.44,0,0,1,33.53,61a11.11,11.11,0,0,1,1.52.12,5,5,0,0,1,1.64.54A3.65,3.65,0,0,1,38,62.89,3.7,3.7,0,0,1,38.54,65a8.69,8.69,0,0,1-.17,1.48c-.11.6-.24,1.23-.41,1.88s-.3,1.26-.41,1.81a6.75,6.75,0,0,0-.16,1.15,3.34,3.34,0,0,0,.45,1.89,2.76,2.76,0,0,0,1,.94,3.16,3.16,0,0,0,1.19.33l.94,0A3.37,3.37,0,0,0,43.09,74a3.06,3.06,0,0,0,1-1.35,5.36,5.36,0,0,0,.37-1.76c0-.63,0-1.19,0-1.68V35.59Z"/><path class="cls-1" d="M115.41,42.26A11.26,11.26,0,0,1,114,46.75a10.29,10.29,0,0,1-3.74,3.74,13.68,13.68,0,0,1-7.19,1.57,21.13,21.13,0,0,1-3.39-.28,10.55,10.55,0,0,1-3.2-1,6.63,6.63,0,0,1-2.39-2.07,5.58,5.58,0,0,1-.94-3.33c0-.21,0-.56.06-1a3.33,3.33,0,0,1,.53-1.47,4.28,4.28,0,0,1,1.48-1.36,5.8,5.8,0,0,1,2.89-.59,8.76,8.76,0,0,1,1.16.09,3.8,3.8,0,0,1,1.26.41,2.62,2.62,0,0,1,1.41,2.51,6,6,0,0,1-.13,1.13c-.08.47-.18.95-.31,1.45s-.23,1-.31,1.38a4.79,4.79,0,0,0-.13.88,2.57,2.57,0,0,0,.35,1.45,2.2,2.2,0,0,0,.78.72,2.3,2.3,0,0,0,.91.25l.73,0a2.57,2.57,0,0,0,1.6-.41,2.42,2.42,0,0,0,.78-1,4,4,0,0,0,.28-1.35c0-.49,0-.92,0-1.29V7.33h-5.78V6.45h20.66v.88h-5.78v31C115.63,39.41,115.56,40.71,115.41,42.26Z"/><path class="cls-1" d="M163.05,6.45V17.19h-.81a22.78,22.78,0,0,0-1.07-2.73,13.55,13.55,0,0,0-2.1-3.24,12.54,12.54,0,0,0-3.49-2.73,10.81,10.81,0,0,0-5.21-1.16h-10V26.74h3.52a10.26,10.26,0,0,0,3.92-.66,7.07,7.07,0,0,0,2.67-1.88,10.23,10.23,0,0,0,1.76-3,22.31,22.31,0,0,0,1.13-3.86h.82V36.92h-.82c-.29-1.21-.64-2.39-1-3.52a10.51,10.51,0,0,0-1.61-3,7.23,7.23,0,0,0-2.48-2,7.92,7.92,0,0,0-3.67-.76h-4.21V50.3h10.3a13.33,13.33,0,0,0,5.21-1A13,13,0,0,0,160,46.59a15.48,15.48,0,0,0,3-4.11,22.21,22.21,0,0,0,1.82-5.06h.82V51.18H125.49V50.3h5.78v-43h-5.78V6.45Z"/><path class="cls-1" d="M173.42,37.23c.08.51.23,1.17.44,2a18.48,18.48,0,0,0,.91,2.64,22.23,22.23,0,0,0,1.5,2.89,13.74,13.74,0,0,0,2.23,2.73,13,13,0,0,0,2.8,2.2,11.61,11.61,0,0,0,2.58,1.1,9.51,9.51,0,0,0,2.32.38l2,0a12.36,12.36,0,0,0,5.46-1,9.49,9.49,0,0,0,3.36-2.54,9.18,9.18,0,0,0,1.73-3.17,10.14,10.14,0,0,0,.5-2.92,6.39,6.39,0,0,0-1.09-3.84,8.91,8.91,0,0,0-2.93-2.51,21.28,21.28,0,0,0-4.14-1.7l-4.77-1.41a45.11,45.11,0,0,1-4.78-1.7,15.42,15.42,0,0,1-4.14-2.51,11.27,11.27,0,0,1-2.92-3.8,12.79,12.79,0,0,1-1.1-5.65,10.84,10.84,0,0,1,1.13-4.84,13.25,13.25,0,0,1,3.14-4.12,16.12,16.12,0,0,1,4.8-2.89,16.52,16.52,0,0,1,6.06-1.1,15.8,15.8,0,0,1,3.65.38,28.05,28.05,0,0,1,2.76.79q1.2.4,2.1.78a4.48,4.48,0,0,0,1.67.38,1.74,1.74,0,0,0,1.16-.28,3.41,3.41,0,0,0,.6-1h1V18.39h-.81c-.51-1.47-1-2.91-1.6-4.34a16.31,16.31,0,0,0-2.17-3.86,10.09,10.09,0,0,0-3.33-2.8,10.82,10.82,0,0,0-5.09-1.07,13.08,13.08,0,0,0-4.43.69,10.4,10.4,0,0,0-3.23,1.83,8,8,0,0,0-2,2.51,6.25,6.25,0,0,0-.69,2.83,5.59,5.59,0,0,0,1.16,3.64,10,10,0,0,0,3.05,2.48,23.07,23.07,0,0,0,4.3,1.79l5,1.57q2.55.82,5,1.79a17.05,17.05,0,0,1,4.31,2.49,11.88,11.88,0,0,1,3,3.64,10.85,10.85,0,0,1,1.16,5.28,14.06,14.06,0,0,1-1.25,5.84,14.65,14.65,0,0,1-3.55,4.84,17.48,17.48,0,0,1-5.47,3.3,19.59,19.59,0,0,1-7.06,1.22,19.21,19.21,0,0,1-3.86-.38c-1.28-.25-2.48-.51-3.59-.78s-2.09-.54-2.95-.79a7.57,7.57,0,0,0-1.91-.37,2.13,2.13,0,0,0-1.26.28,2.56,2.56,0,0,0-.69,1.16h-1v-14Z"/><path class="cls-1" d="M211.67,37.23c.08.51.23,1.17.44,2a18.48,18.48,0,0,0,.91,2.64,21.16,21.16,0,0,0,1.51,2.89,13.08,13.08,0,0,0,2.23,2.73,12.68,12.68,0,0,0,2.79,2.2,11.61,11.61,0,0,0,2.58,1.1,9.51,9.51,0,0,0,2.32.38l2,0a12.44,12.44,0,0,0,5.47-1,9.67,9.67,0,0,0,3.36-2.54A9.31,9.31,0,0,0,237,44.43a10.2,10.2,0,0,0,.51-2.92,6.39,6.39,0,0,0-1.1-3.84,9,9,0,0,0-2.92-2.51,21.64,21.64,0,0,0-4.15-1.7l-4.77-1.41a45.11,45.11,0,0,1-4.78-1.7,15.42,15.42,0,0,1-4.14-2.51,11.27,11.27,0,0,1-2.92-3.8,12.79,12.79,0,0,1-1.1-5.65,10.84,10.84,0,0,1,1.13-4.84,13.25,13.25,0,0,1,3.14-4.12,16.12,16.12,0,0,1,4.8-2.89,16.54,16.54,0,0,1,6.07-1.1,15.77,15.77,0,0,1,3.64.38,28.05,28.05,0,0,1,2.76.79c.8.27,1.5.53,2.11.78a4.39,4.39,0,0,0,1.66.38,1.74,1.74,0,0,0,1.16-.28,3.41,3.41,0,0,0,.6-1h1V18.39h-.81c-.5-1.47-1-2.91-1.6-4.34a16.31,16.31,0,0,0-2.17-3.86,10.09,10.09,0,0,0-3.33-2.8,10.82,10.82,0,0,0-5.09-1.07,13.08,13.08,0,0,0-4.43.69,10.4,10.4,0,0,0-3.23,1.83,8,8,0,0,0-2,2.51,6.25,6.25,0,0,0-.69,2.83,5.65,5.65,0,0,0,1.16,3.64,10.14,10.14,0,0,0,3.05,2.48,23.07,23.07,0,0,0,4.3,1.79l5,1.57q2.55.82,5,1.79a17.05,17.05,0,0,1,4.31,2.49,11.88,11.88,0,0,1,3,3.64,10.85,10.85,0,0,1,1.16,5.28,13.9,13.9,0,0,1-1.25,5.84,14.65,14.65,0,0,1-3.55,4.84,17.48,17.48,0,0,1-5.47,3.3A19.59,19.59,0,0,1,226,52.06a19.21,19.21,0,0,1-3.86-.38c-1.28-.25-2.48-.51-3.58-.78s-2.1-.54-3-.79a7.57,7.57,0,0,0-1.91-.37,2.13,2.13,0,0,0-1.26.28,2.56,2.56,0,0,0-.69,1.16h-1v-14Z"/><path class="cls-1" d="M267.76,6.45v.88H262V35.54a56.78,56.78,0,0,0,.28,5.75,15.32,15.32,0,0,0,1.32,5,8.54,8.54,0,0,0,3.08,3.55,9.83,9.83,0,0,0,5.49,1.35,17.88,17.88,0,0,0,5.69-.78,11.67,11.67,0,0,0,3.8-2.08A9.43,9.43,0,0,0,284,45.43a13.86,13.86,0,0,0,1.19-3.2,15.51,15.51,0,0,0,.44-3c.05-.94.07-1.73.07-2.35V7.33h-5.72V6.45H292.5v.88h-5.84V36.79q0,1-.06,2.55a15.39,15.39,0,0,1-.5,3.23,16.8,16.8,0,0,1-1.32,3.4,9.55,9.55,0,0,1-2.58,3,13.3,13.3,0,0,1-4.27,2.2,20.35,20.35,0,0,1-6.34.85,29.28,29.28,0,0,1-9.8-1.35,13.92,13.92,0,0,1-5.68-3.52,10.74,10.74,0,0,1-2.61-4.93,25.08,25.08,0,0,1-.63-5.59V7.33H247V6.45Z"/><path class="cls-1" d="M317.25,50.3v.88H296.59V50.3h5.77v-43h-5.77V6.45h5.77q3.21,0,6.41-.09c2.14-.07,4.27-.1,6.41-.1a43.47,43.47,0,0,1,6.09.47,21.54,21.54,0,0,1,6,1.76,12.86,12.86,0,0,1,4.62,3.58A9.19,9.19,0,0,1,333.77,18a9.52,9.52,0,0,1-1.19,4.62,10.8,10.8,0,0,1-3.65,3.77,20.59,20.59,0,0,1-6.15,2.54,35.63,35.63,0,0,1-8.73.94h-2.58V50.3ZM313.42,29c3.56,0,6.13-.8,7.72-2.42s2.39-4.34,2.39-8.19c0-3.65-.69-6.43-2.07-8.36s-3.9-2.89-7.54-2.89q-.69,0-1.32.06l-1.13.13V29Z"/><path class="cls-1" d="M340.62,37.23c.08.51.23,1.17.44,2a17.32,17.32,0,0,0,.91,2.64,21.05,21.05,0,0,0,1.5,2.89,13.4,13.4,0,0,0,2.23,2.73,13,13,0,0,0,2.8,2.2,11.74,11.74,0,0,0,2.57,1.1,9.66,9.66,0,0,0,2.33.38l2,0a12.36,12.36,0,0,0,5.46-1,9.49,9.49,0,0,0,3.36-2.54A9.18,9.18,0,0,0,366,44.43a10.14,10.14,0,0,0,.5-2.92,6.32,6.32,0,0,0-1.1-3.84,8.77,8.77,0,0,0-2.92-2.51,21.28,21.28,0,0,0-4.14-1.7l-4.78-1.41a45.75,45.75,0,0,1-4.77-1.7,15.42,15.42,0,0,1-4.14-2.51,11.42,11.42,0,0,1-2.93-3.8,12.94,12.94,0,0,1-1.09-5.65,10.84,10.84,0,0,1,1.13-4.84,13.25,13.25,0,0,1,3.14-4.12,16.12,16.12,0,0,1,4.8-2.89,16.48,16.48,0,0,1,6.06-1.1,15.86,15.86,0,0,1,3.65.38c1,.25,2,.51,2.76.79s1.5.53,2.1.78a4.48,4.48,0,0,0,1.67.38,1.76,1.76,0,0,0,1.16-.28,3.41,3.41,0,0,0,.6-1h1V18.39h-.81c-.51-1.47-1-2.91-1.61-4.34a15.94,15.94,0,0,0-2.16-3.86,10.09,10.09,0,0,0-3.33-2.8,10.82,10.82,0,0,0-5.09-1.07,13,13,0,0,0-4.43.69A10.29,10.29,0,0,0,348,8.84a8,8,0,0,0-2,2.51,6.25,6.25,0,0,0-.69,2.83,5.59,5.59,0,0,0,1.16,3.64,10,10,0,0,0,3.05,2.48,22.79,22.79,0,0,0,4.3,1.79l5,1.57q2.55.82,5,1.79a16.82,16.82,0,0,1,4.3,2.49,11.91,11.91,0,0,1,3.05,3.64,11,11,0,0,1,1.16,5.28A14.06,14.06,0,0,1,371,42.7a14.65,14.65,0,0,1-3.55,4.84,17.48,17.48,0,0,1-5.47,3.3,19.59,19.59,0,0,1-7.06,1.22,19.38,19.38,0,0,1-3.87-.38c-1.27-.25-2.47-.51-3.58-.78s-2.09-.54-2.95-.79a7.64,7.64,0,0,0-1.91-.37,2.13,2.13,0,0,0-1.26.28,2.56,2.56,0,0,0-.69,1.16h-1v-14Z"/><path class="cls-1" d="M134.28,75.65v-12h1.62v12Z"/><path class="cls-2" d="M97,66.1v8.24H95.46V66.1H93.85V64.74h4.74V66.1Z"/><path class="cls-2" d="M103.29,74.34,102,70.4h-.85v3.94H99.68v-9.6h2.43c1.75,0,2.45.85,2.45,2.83,0,1.19-.24,2-1.12,2.51l1.43,4.26Zm-1.17-8.24h-.93V69h.93c.81,0,.93-.67.93-1.47S102.93,66.1,102.12,66.1Z"/><path class="cls-2" d="M110.28,73.75a2.63,2.63,0,0,1-3.57,0,2.49,2.49,0,0,1-.66-1.77V64.74h1.51v7.32a.94.94,0,1,0,1.87,0V64.74h1.51V72A2.49,2.49,0,0,1,110.28,73.75Z"/><path class="cls-2" d="M116.5,73.8a2.65,2.65,0,0,1-1.88.63,2.53,2.53,0,0,1-1.86-.63,2.64,2.64,0,0,1-.62-2.06h1.51a1.57,1.57,0,0,0,.27,1.08,1,1,0,0,0,.7.25.88.88,0,0,0,.73-.27,1.54,1.54,0,0,0,.26-1.06c0-1-.16-1.27-.91-1.58l-1.14-.47c-1-.41-1.34-.93-1.34-2.42a2.63,2.63,0,0,1,.78-2,2.75,2.75,0,0,1,3.38,0,2.76,2.76,0,0,1,.67,2.09h-1.51a1.63,1.63,0,0,0-.23-1,.8.8,0,0,0-.67-.28.82.82,0,0,0-.65.27,1.39,1.39,0,0,0-.26.94c0,.78.12,1,.8,1.3l1.13.46c1.15.45,1.46,1.07,1.46,2.69A2.76,2.76,0,0,1,116.5,73.8Z"/><path class="cls-2" d="M121,66.1v8.24h-1.51V66.1h-1.61V64.74h4.74V66.1Z"/><path class="cls-2" d="M151.84,73.84a2.32,2.32,0,0,1-1.66.61,2.27,2.27,0,0,1-1.86-.81c-.71-.81-.7-2.2-.7-4.09s0-3.3.7-4.11a2.55,2.55,0,0,1,3.53-.19,2.8,2.8,0,0,1,.77,2h-1.51a1.83,1.83,0,0,0-.23-.93.74.74,0,0,0-.7-.35.76.76,0,0,0-.71.37c-.29.45-.34,1.43-.34,3.18s.05,2.72.34,3.18a.76.76,0,0,0,.71.37.79.79,0,0,0,.72-.35,2,2,0,0,0,.23-.95h1.51A2.87,2.87,0,0,1,151.84,73.84Z"/><path class="cls-2" d="M158.07,73.64a2.54,2.54,0,0,1-3.72,0c-.72-.81-.7-2.21-.7-4.1s0-3.29.7-4.1a2.54,2.54,0,0,1,3.72,0c.72.81.7,2.21.7,4.1S158.79,72.83,158.07,73.64Zm-1.13-7.28a.81.81,0,0,0-.73-.37.79.79,0,0,0-.72.37c-.28.45-.33,1.43-.33,3.18a7.65,7.65,0,0,0,.33,3.18.79.79,0,0,0,.72.37.81.81,0,0,0,.73-.37c.28-.46.32-1.43.32-3.18S157.22,66.81,156.94,66.36Z"/><path class="cls-2" d="M163.75,74.34l-1.26-3.94h-.85v3.94h-1.51v-9.6h2.43c1.75,0,2.46.85,2.46,2.83,0,1.19-.25,2-1.12,2.51l1.43,4.26Zm-1.17-8.24h-.94V69h.94c.8,0,.93-.67.93-1.47S163.38,66.1,162.58,66.1Z"/><path class="cls-2" d="M169,70.59h-.9v3.75h-1.51v-9.6H169c1.74,0,2.47.9,2.47,2.91S170.81,70.59,169,70.59Zm0-4.49h-.93v3.13H169c.81,0,.93-.72.93-1.57S169.83,66.1,169,66.1Z"/><path class="cls-2" d="M176.94,73.64a2.55,2.55,0,0,1-3.73,0c-.71-.81-.7-2.21-.7-4.1s0-3.29.7-4.1a2.55,2.55,0,0,1,3.73,0c.71.81.7,2.21.7,4.1S177.65,72.83,176.94,73.64Zm-1.14-7.28a.89.89,0,0,0-1.44,0,7.56,7.56,0,0,0-.34,3.18,7.59,7.59,0,0,0,.34,3.18.89.89,0,0,0,1.44,0c.29-.46.33-1.43.33-3.18S176.09,66.81,175.8,66.36Z"/><path class="cls-2" d="M182.61,74.34l-1.25-3.94h-.85v3.94H179v-9.6h2.43c1.75,0,2.45.85,2.45,2.83,0,1.19-.24,2-1.12,2.51l1.43,4.26Zm-1.17-8.24h-.93V69h.93c.81,0,.93-.67.93-1.47S182.25,66.1,181.44,66.1Z"/><path class="cls-2" d="M189.29,74.34l-.39-1.9h-2.23l-.37,1.9h-1.6l2.36-9.6h1.48l2.33,9.6Zm-1.5-7.28-.82,4h1.65Z"/><path class="cls-2" d="M194.35,66.1v8.24h-1.51V66.1h-1.61V64.74H196V66.1Z"/><path class="cls-2" d="M197.06,74.34v-9.6h4V66.1h-2.52v2.72h2.17v1.37h-2.17V73h2.52v1.36Z"/><path class="cls-2" d="M230.38,74.34l-.39-1.9h-2.23l-.38,1.9h-1.59l2.36-9.6h1.47l2.34,9.6Zm-1.5-7.28-.82,4h1.64Z"/><path class="cls-2" d="M236.81,73.84a2.55,2.55,0,0,1-3.52-.2c-.71-.81-.7-2.2-.7-4.09s0-3.3.7-4.11a2.55,2.55,0,0,1,3.53-.19,2.8,2.8,0,0,1,.77,2h-1.51a1.74,1.74,0,0,0-.23-.93.74.74,0,0,0-.7-.35.76.76,0,0,0-.71.37c-.29.45-.34,1.43-.34,3.18s.05,2.72.34,3.18a.76.76,0,0,0,.71.37.79.79,0,0,0,.72-.35,2,2,0,0,0,.23-.95h1.51A2.87,2.87,0,0,1,236.81,73.84Z"/><path class="cls-2" d="M242.84,73.84a2.32,2.32,0,0,1-1.66.61,2.27,2.27,0,0,1-1.86-.81c-.72-.81-.7-2.2-.7-4.09s0-3.3.7-4.11a2.55,2.55,0,0,1,3.53-.19,2.84,2.84,0,0,1,.77,2h-1.51a1.83,1.83,0,0,0-.23-.93.75.75,0,0,0-.7-.35.76.76,0,0,0-.71.37c-.29.45-.34,1.43-.34,3.18s.05,2.72.34,3.18a.76.76,0,0,0,.71.37.8.8,0,0,0,.72-.35,1.91,1.91,0,0,0,.22-.95h1.52A2.87,2.87,0,0,1,242.84,73.84Z"/><path class="cls-2" d="M249.07,73.64a2.54,2.54,0,0,1-3.72,0c-.72-.81-.7-2.21-.7-4.1s0-3.29.7-4.1a2.54,2.54,0,0,1,3.72,0c.72.81.7,2.21.7,4.1S249.79,72.83,249.07,73.64Zm-1.13-7.28a.81.81,0,0,0-.73-.37.79.79,0,0,0-.72.37c-.28.45-.33,1.43-.33,3.18a7.65,7.65,0,0,0,.33,3.18.79.79,0,0,0,.72.37.81.81,0,0,0,.73-.37c.28-.46.32-1.43.32-3.18S248.22,66.81,247.94,66.36Z"/><path class="cls-2" d="M255.29,73.75a2.4,2.4,0,0,1-1.78.7,2.43,2.43,0,0,1-1.8-.7,2.54,2.54,0,0,1-.66-1.77V64.74h1.51v7.32a.94.94,0,1,0,1.88,0V64.74H256V72A2.49,2.49,0,0,1,255.29,73.75Z"/><path class="cls-2" d="M261.26,74.34,259,68.64v5.7h-1.51v-9.6h1.34l2.26,5.7v-5.7h1.51v9.6Z"/><path class="cls-2" d="M266.8,66.1v8.24h-1.51V66.1h-1.6V64.74h4.73V66.1Z"/><path class="cls-2" d="M269.51,74.34v-9.6H271v9.6Z"/><path class="cls-2" d="M276.42,74.34l-2.27-5.7v5.7h-1.51v-9.6H274l2.25,5.7v-5.7h1.51v9.6Z"/><path class="cls-2" d="M281.68,74.45a2.27,2.27,0,0,1-1.86-.81c-.72-.81-.7-2.21-.7-4.1s0-3.29.7-4.1a2.56,2.56,0,0,1,3.57-.16,2.91,2.91,0,0,1,.74,2h-1.51c0-.54-.13-1.3-.94-1.3a.79.79,0,0,0-.72.37c-.28.45-.33,1.43-.33,3.18a7.65,7.65,0,0,0,.33,3.18.79.79,0,0,0,.72.37c.65,0,.94-.57.94-1.23v-1.5h-.94V69.12h2.45v2.66A2.38,2.38,0,0,1,281.68,74.45Z"/><path class="cls-2" d="M312.24,66.1v8.24h-1.52V66.1h-1.6V64.74h4.73V66.1Z"/><path class="cls-2" d="M318.79,74.34l-.39-1.9h-2.23l-.38,1.9H314.2l2.36-9.6H318l2.34,9.6Zm-1.5-7.28-.82,4h1.64Z"/><path class="cls-2" d="M324.47,74.34l-1.11-3.45-1.1,3.45H320.6l1.9-5-1.76-4.62h1.66l1,3.21,1-3.21H326l-1.8,4.62,1.95,5Z"/><path class="cls-2" d="M333.52,73.8a2.65,2.65,0,0,1-1.88.63,2.53,2.53,0,0,1-1.86-.63,2.64,2.64,0,0,1-.62-2.06h1.51a1.52,1.52,0,0,0,.27,1.08.93.93,0,0,0,.7.25.88.88,0,0,0,.73-.27,1.54,1.54,0,0,0,.26-1.06c0-1-.17-1.27-.91-1.58l-1.14-.47c-1-.41-1.34-.93-1.34-2.42a2.63,2.63,0,0,1,.78-2,2.4,2.4,0,0,1,1.65-.58,2.35,2.35,0,0,1,1.72.58,2.73,2.73,0,0,1,.68,2.09h-1.51a1.63,1.63,0,0,0-.23-1,.81.81,0,0,0-.67-.28.82.82,0,0,0-.65.27,1.39,1.39,0,0,0-.26.94c0,.78.12,1,.8,1.3l1.13.46c1.15.45,1.46,1.07,1.46,2.69A2.76,2.76,0,0,1,333.52,73.8Z"/><path class="cls-2" d="M335.46,74.34v-9.6h4V66.1H337v2.72h2.17v1.37H337V73h2.52v1.36Z"/><path class="cls-2" d="M344.41,74.34l-1.25-3.94h-.85v3.94H340.8v-9.6h2.43c1.75,0,2.45.85,2.45,2.83,0,1.19-.24,2-1.12,2.51L346,74.34Zm-1.17-8.24h-.93V69h.93c.81,0,.93-.67.93-1.47S344.05,66.1,343.24,66.1Z"/><path class="cls-2" d="M350.16,74.34h-1.57l-2.1-9.6h1.66L349.38,72l1.24-7.28h1.66Z"/><path class="cls-2" d="M353.14,74.34v-9.6h1.51v9.6Z"/><path class="cls-2" d="M360.23,73.84a2.55,2.55,0,0,1-3.52-.2c-.71-.81-.7-2.2-.7-4.09s0-3.3.7-4.11a2.3,2.3,0,0,1,1.86-.81,2.33,2.33,0,0,1,1.68.62,2.84,2.84,0,0,1,.76,2H359.5a1.74,1.74,0,0,0-.23-.93.74.74,0,0,0-.7-.35.76.76,0,0,0-.71.37c-.29.45-.34,1.43-.34,3.18s.05,2.72.34,3.18a.76.76,0,0,0,.71.37.79.79,0,0,0,.72-.35,2,2,0,0,0,.23-.95H361A2.87,2.87,0,0,1,360.23,73.84Z"/><path class="cls-2" d="M362.29,74.34v-9.6h4V66.1h-2.52v2.72H366v1.37h-2.17V73h2.52v1.36Z"/><path class="cls-2" d="M371.65,73.8a2.62,2.62,0,0,1-1.87.63,2.5,2.5,0,0,1-1.86-.63,2.64,2.64,0,0,1-.62-2.06h1.51a1.52,1.52,0,0,0,.27,1.08.93.93,0,0,0,.7.25.88.88,0,0,0,.73-.27,1.54,1.54,0,0,0,.25-1.06c0-1-.16-1.27-.9-1.58l-1.15-.47c-1-.41-1.33-.93-1.33-2.42a2.63,2.63,0,0,1,.78-2,2.4,2.4,0,0,1,1.65-.58,2.35,2.35,0,0,1,1.72.58,2.73,2.73,0,0,1,.68,2.09H370.7a1.63,1.63,0,0,0-.23-1,.82.82,0,0,0-.68-.28.79.79,0,0,0-.64.27,1.39,1.39,0,0,0-.26.94c0,.78.12,1,.8,1.3l1.13.46c1.14.45,1.45,1.07,1.45,2.69A2.72,2.72,0,0,1,371.65,73.8Z"/><path class="cls-1" d="M212.63,75.65v-12h1.62v12Z"/><path class="cls-1" d="M295.82,75.65v-12h1.62v12Z"/></svg>