<?xml version="1.0" encoding="utf-8"?>
<!-- Generator: Adobe Illustrator 23.0.1, SVG Export Plug-In . SVG Version: 6.00 Build 0)  -->
<svg version="1.1" id="Layer_1" xmlns="http://www.w3.org/2000/svg" xmlns:xlink="http://www.w3.org/1999/xlink" x="0px" y="0px"
	 viewBox="0 0 372.3 75.7" style="enable-background:new 0 0 372.3 75.7;" xml:space="preserve">
<style type="text/css">
	.st0{fill:#D7411D;}
	.st1{fill:#645A50;}
	.st2{opacity:0.5;fill:#D7411D;}
</style>
<path class="st0" d="M40.1,56.4H17.9c-1.4,0-3.1-0.1-5.1-0.3c-2-0.2-4-0.8-5.9-1.8c-1.9-1-3.5-2.7-4.9-4.9C0.7,47.2,0,44.1,0,40
	c0-1.4,0.1-2.9,0.4-4.4c0.2-1.5,0.7-2.9,1.4-4.2c0.7-1.3,1.6-2.3,2.7-3.1c1.1-0.8,2.6-1.2,4.4-1.2c0.3,0,0.7,0,1.4,0.1
	c0.6,0.1,1.3,0.3,1.9,0.7s1.2,1.1,1.8,1.9c0.5,0.9,0.8,2.1,0.8,3.8c0,0.4,0,0.9-0.1,1.5c-0.1,0.6-0.3,1.1-0.5,1.6
	c-0.3,0.5-0.7,1-1.2,1.3c-0.5,0.4-1.2,0.5-2.1,0.5c-0.4,0-0.9-0.1-1.5-0.2C8.6,38.3,8,38.1,7.3,38c-0.7-0.2-1.3-0.3-1.8-0.4
	c-0.5-0.1-0.9-0.2-1.1-0.2c-0.8,0-1.4,0.1-1.9,0.5c-0.4,0.3-0.8,0.6-0.9,1c-0.2,0.4-0.3,0.8-0.3,1.2c0,0.4,0,0.7,0,0.9
	c0,0.9,0.2,1.6,0.5,2.1c0.4,0.5,0.8,0.8,1.4,1c0.5,0.2,1.1,0.3,1.8,0.4c0.6,0,1.2,0,1.7,0h33.6V56.4z"/>
<path class="st0" d="M19.2,40.1V17.9c0-1.4,0.1-3.1,0.3-5.1c0.2-2,0.8-4,1.8-5.9c1-1.9,2.7-3.5,4.9-4.9C28.5,0.7,31.6,0,35.6,0
	c1.4,0,2.9,0.1,4.4,0.4c1.5,0.2,2.9,0.7,4.2,1.4c1.3,0.7,2.3,1.6,3.1,2.7c0.8,1.1,1.2,2.6,1.2,4.4c0,0.3,0,0.7-0.1,1.4
	c-0.1,0.6-0.3,1.3-0.7,1.9s-1.1,1.2-1.9,1.8c-0.9,0.5-2.1,0.8-3.8,0.8c-0.4,0-0.9,0-1.5-0.1c-0.6-0.1-1.1-0.3-1.6-0.5
	c-0.5-0.3-1-0.7-1.3-1.2c-0.4-0.5-0.5-1.2-0.5-2.1c0-0.4,0.1-0.9,0.2-1.5c0.1-0.6,0.2-1.2,0.4-1.9C37.8,6.6,38,6,38.1,5.5
	c0.1-0.5,0.2-0.9,0.2-1.1c0-0.8-0.1-1.4-0.5-1.9c-0.3-0.4-0.6-0.8-1-0.9c-0.4-0.2-0.8-0.3-1.2-0.3c-0.4,0-0.7,0-0.9,0
	c-0.9,0-1.6,0.2-2.1,0.5c-0.5,0.4-0.8,0.8-1,1.4c-0.2,0.5-0.3,1.1-0.4,1.8c0,0.6,0,1.2,0,1.7v33.6H19.2z"/>
<path class="st0" d="M35.6,19.2h22.2c1.4,0,3.1,0.1,5.1,0.3c2,0.2,4,0.8,5.9,1.8c1.9,1,3.5,2.7,4.9,4.9c1.4,2.2,2.1,5.3,2.1,9.4
	c0,1.4-0.1,2.9-0.4,4.4c-0.2,1.5-0.7,2.9-1.4,4.2c-0.7,1.3-1.6,2.3-2.7,3.1c-1.1,0.8-2.6,1.2-4.4,1.2c-0.3,0-0.7,0-1.4-0.1
	c-0.6-0.1-1.3-0.3-1.9-0.7s-1.2-1.1-1.8-1.9C61.3,45,61,43.8,61,42.1c0-0.4,0-0.9,0.1-1.5c0.1-0.6,0.3-1.1,0.5-1.6
	c0.3-0.5,0.7-1,1.2-1.3c0.5-0.4,1.2-0.5,2.1-0.5c0.4,0,0.9,0.1,1.5,0.2c0.6,0.1,1.2,0.2,1.9,0.4c0.7,0.2,1.3,0.3,1.8,0.4
	c0.5,0.1,0.9,0.2,1.1,0.2c0.8,0,1.4-0.1,1.9-0.5c0.4-0.3,0.8-0.6,0.9-1c0.2-0.4,0.3-0.8,0.3-1.2c0-0.4,0-0.7,0-0.9
	c0-0.9-0.2-1.6-0.5-2.1c-0.4-0.5-0.8-0.8-1.4-1c-0.5-0.2-1.1-0.3-1.8-0.4c-0.6,0-1.2,0-1.7,0H35.6V19.2z"/>
<path class="st1" d="M56.4,35.6v22.2c0,1.4-0.1,3.1-0.3,5.1c-0.2,2-0.8,4-1.8,5.9c-1,1.9-2.7,3.5-4.9,4.9c-2.2,1.4-5.3,2.1-9.4,2.1
	c-1.4,0-2.9-0.1-4.4-0.4c-1.5-0.2-2.9-0.7-4.2-1.4c-1.3-0.7-2.3-1.6-3.1-2.7c-0.8-1.1-1.2-2.6-1.2-4.4c0-0.3,0-0.7,0.1-1.4
	c0.1-0.6,0.3-1.3,0.7-1.9s1.1-1.2,1.9-1.8c0.9-0.5,2.1-0.8,3.8-0.8c0.4,0,0.9,0,1.5,0.1c0.6,0.1,1.1,0.3,1.6,0.5
	c0.5,0.3,1,0.7,1.3,1.2c0.4,0.5,0.5,1.2,0.5,2.1c0,0.4-0.1,0.9-0.2,1.5c-0.1,0.6-0.2,1.2-0.4,1.9c-0.2,0.7-0.3,1.3-0.4,1.8
	c-0.1,0.5-0.2,0.9-0.2,1.1c0,0.8,0.1,1.4,0.5,1.9c0.3,0.4,0.6,0.8,1,0.9c0.4,0.2,0.8,0.3,1.2,0.3c0.4,0,0.7,0,0.9,0
	c0.9,0,1.6-0.2,2.1-0.5c0.5-0.4,0.8-0.8,1-1.4c0.2-0.5,0.3-1.1,0.4-1.8c0-0.6,0-1.2,0-1.7V35.6H56.4z"/>
<g>
	<g>
		<path class="st0" d="M115.4,42.3c-0.1,1.6-0.6,3-1.4,4.5c-0.8,1.4-2,2.7-3.7,3.7s-4.1,1.6-7.2,1.6c-1.1,0-2.2-0.1-3.4-0.3
			c-1.2-0.2-2.2-0.5-3.2-1c-1-0.5-1.8-1.2-2.4-2.1c-0.6-0.9-0.9-2-0.9-3.3c0-0.2,0-0.6,0.1-1c0-0.5,0.2-1,0.5-1.5
			c0.3-0.5,0.8-1,1.5-1.4c0.7-0.4,1.6-0.6,2.9-0.6c0.3,0,0.7,0,1.2,0.1c0.4,0.1,0.9,0.2,1.3,0.4c0.4,0.2,0.7,0.5,1,0.9
			c0.3,0.4,0.4,0.9,0.4,1.6c0,0.3,0,0.7-0.1,1.1c-0.1,0.5-0.2,0.9-0.3,1.4c-0.1,0.5-0.2,1-0.3,1.4c-0.1,0.4-0.1,0.7-0.1,0.9
			c0,0.6,0.1,1.1,0.3,1.4c0.2,0.3,0.5,0.6,0.8,0.7c0.3,0.1,0.6,0.2,0.9,0.3c0.3,0,0.6,0,0.7,0c0.7,0,1.2-0.1,1.6-0.4
			c0.4-0.3,0.6-0.6,0.8-1c0.2-0.4,0.3-0.9,0.3-1.4c0-0.5,0-0.9,0-1.3V7.3h-5.8V6.4h20.7v0.9h-5.8v31
			C115.6,39.4,115.6,40.7,115.4,42.3z"/>
		<path class="st0" d="M163.1,6.4v10.7h-0.8c-0.2-0.7-0.6-1.6-1.1-2.7c-0.5-1.1-1.2-2.2-2.1-3.2c-0.9-1-2.1-2-3.5-2.7
			c-1.4-0.8-3.2-1.2-5.2-1.2h-10v19.4h3.5c1.5,0,2.9-0.2,3.9-0.7c1.1-0.4,2-1.1,2.7-1.9c0.7-0.8,1.3-1.8,1.8-3
			c0.5-1.2,0.8-2.4,1.1-3.9h0.8v19.5h-0.8c-0.3-1.2-0.6-2.4-1-3.5c-0.4-1.1-0.9-2.1-1.6-3c-0.7-0.9-1.5-1.5-2.5-2
			c-1-0.5-2.2-0.8-3.7-0.8h-4.2v22.7h10.3c1.9,0,3.7-0.3,5.2-1c1.5-0.6,2.9-1.6,4.1-2.7c1.2-1.2,2.2-2.5,3-4.1
			c0.8-1.6,1.4-3.3,1.8-5.1h0.8v13.8h-40.1v-0.9h5.8v-43h-5.8V6.4H163.1z"/>
		<path class="st0" d="M173.4,37.2c0.1,0.5,0.2,1.2,0.4,2c0.2,0.8,0.5,1.7,0.9,2.6c0.4,0.9,0.9,1.9,1.5,2.9c0.6,1,1.4,1.9,2.2,2.7
			c1,1,1.9,1.7,2.8,2.2c0.9,0.5,1.8,0.9,2.6,1.1c0.8,0.2,1.6,0.4,2.3,0.4c0.7,0,1.4,0,2,0c2.2,0,4-0.3,5.5-1
			c1.4-0.7,2.5-1.5,3.4-2.5s1.4-2.1,1.7-3.2c0.3-1.1,0.5-2.1,0.5-2.9c0-1.5-0.4-2.8-1.1-3.8c-0.7-1-1.7-1.8-2.9-2.5
			c-1.2-0.7-2.6-1.2-4.1-1.7c-1.5-0.5-3.1-0.9-4.8-1.4c-1.6-0.5-3.2-1-4.8-1.7c-1.5-0.6-2.9-1.5-4.1-2.5c-1.2-1-2.2-2.3-2.9-3.8
			c-0.7-1.5-1.1-3.4-1.1-5.7c0-1.7,0.4-3.3,1.1-4.8c0.8-1.5,1.8-2.9,3.1-4.1c1.3-1.2,2.9-2.2,4.8-2.9c1.9-0.7,3.9-1.1,6.1-1.1
			c1.4,0,2.6,0.1,3.6,0.4c1,0.3,2,0.5,2.8,0.8c0.8,0.3,1.5,0.5,2.1,0.8c0.6,0.3,1.2,0.4,1.7,0.4c0.6,0,1-0.1,1.2-0.3s0.4-0.5,0.6-1
			h1v11.9h-0.8c-0.5-1.5-1-2.9-1.6-4.3c-0.6-1.4-1.3-2.7-2.2-3.9c-0.9-1.2-2-2.1-3.3-2.8c-1.3-0.7-3-1.1-5.1-1.1
			c-1.7,0-3.2,0.2-4.4,0.7c-1.3,0.5-2.4,1.1-3.2,1.8s-1.5,1.6-2,2.5c-0.5,0.9-0.7,1.9-0.7,2.8c0,1.5,0.4,2.7,1.2,3.6
			c0.8,1,1.8,1.8,3,2.5c1.3,0.7,2.7,1.3,4.3,1.8c1.6,0.5,3.3,1,5,1.6c1.7,0.5,3.3,1.1,5,1.8c1.6,0.6,3,1.5,4.3,2.5
			c1.3,1,2.3,2.2,3,3.6c0.8,1.4,1.2,3.2,1.2,5.3c0,2.1-0.4,4-1.3,5.8c-0.8,1.8-2,3.5-3.5,4.8c-1.5,1.4-3.4,2.5-5.5,3.3
			c-2.1,0.8-4.5,1.2-7.1,1.2c-1.3,0-2.6-0.1-3.9-0.4c-1.3-0.3-2.5-0.5-3.6-0.8c-1.1-0.3-2.1-0.5-3-0.8c-0.9-0.3-1.5-0.4-1.9-0.4
			c-0.6,0-1,0.1-1.3,0.3c-0.3,0.2-0.5,0.6-0.7,1.2h-1V37.2H173.4z"/>
		<path class="st0" d="M211.7,37.2c0.1,0.5,0.2,1.2,0.4,2c0.2,0.8,0.5,1.7,0.9,2.6c0.4,0.9,0.9,1.9,1.5,2.9c0.6,1,1.4,1.9,2.2,2.7
			c1,1,1.9,1.7,2.8,2.2c0.9,0.5,1.8,0.9,2.6,1.1c0.8,0.2,1.6,0.4,2.3,0.4c0.7,0,1.4,0,2,0c2.2,0,4-0.3,5.5-1
			c1.4-0.7,2.5-1.5,3.4-2.5s1.4-2.1,1.7-3.2c0.3-1.1,0.5-2.1,0.5-2.9c0-1.5-0.4-2.8-1.1-3.8c-0.7-1-1.7-1.8-2.9-2.5
			c-1.2-0.7-2.6-1.2-4.1-1.7c-1.5-0.5-3.1-0.9-4.8-1.4c-1.6-0.5-3.2-1-4.8-1.7c-1.5-0.6-2.9-1.5-4.1-2.5c-1.2-1-2.2-2.3-2.9-3.8
			c-0.7-1.5-1.1-3.4-1.1-5.7c0-1.7,0.4-3.3,1.1-4.8c0.8-1.5,1.8-2.9,3.1-4.1c1.3-1.2,2.9-2.2,4.8-2.9c1.9-0.7,3.9-1.1,6.1-1.1
			c1.4,0,2.6,0.1,3.6,0.4c1,0.3,2,0.5,2.8,0.8c0.8,0.3,1.5,0.5,2.1,0.8c0.6,0.3,1.2,0.4,1.7,0.4c0.6,0,1-0.1,1.2-0.3s0.4-0.5,0.6-1
			h1v11.9h-0.8c-0.5-1.5-1-2.9-1.6-4.3c-0.6-1.4-1.3-2.7-2.2-3.9c-0.9-1.2-2-2.1-3.3-2.8c-1.3-0.7-3-1.1-5.1-1.1
			c-1.7,0-3.2,0.2-4.4,0.7c-1.3,0.5-2.4,1.1-3.2,1.8s-1.5,1.6-2,2.5c-0.5,0.9-0.7,1.9-0.7,2.8c0,1.5,0.4,2.7,1.2,3.6
			c0.8,1,1.8,1.8,3,2.5c1.3,0.7,2.7,1.3,4.3,1.8c1.6,0.5,3.3,1,5,1.6c1.7,0.5,3.3,1.1,5,1.8c1.6,0.6,3,1.5,4.3,2.5
			c1.3,1,2.3,2.2,3,3.6c0.8,1.4,1.2,3.2,1.2,5.3c0,2.1-0.4,4-1.3,5.8c-0.8,1.8-2,3.5-3.5,4.8c-1.5,1.4-3.4,2.5-5.5,3.3
			c-2.1,0.8-4.5,1.2-7.1,1.2c-1.3,0-2.6-0.1-3.9-0.4c-1.3-0.3-2.5-0.5-3.6-0.8c-1.1-0.3-2.1-0.5-3-0.8c-0.9-0.3-1.5-0.4-1.9-0.4
			c-0.6,0-1,0.1-1.3,0.3c-0.3,0.2-0.5,0.6-0.7,1.2h-1V37.2H211.7z"/>
		<path class="st0" d="M267.8,6.4v0.9H262v28.2c0,2,0.1,3.9,0.3,5.7c0.2,1.9,0.6,3.5,1.3,5c0.7,1.5,1.7,2.6,3.1,3.5
			c1.4,0.9,3.2,1.4,5.5,1.4c2.3,0,4.2-0.3,5.7-0.8c1.5-0.5,2.8-1.2,3.8-2.1c1-0.9,1.8-1.8,2.3-2.9c0.5-1.1,0.9-2.1,1.2-3.2
			c0.3-1.1,0.4-2.1,0.4-3c0-0.9,0.1-1.7,0.1-2.4V7.3h-5.7V6.4h12.6v0.9h-5.8v29.5c0,0.7,0,1.5-0.1,2.5c0,1-0.2,2.1-0.5,3.2
			c-0.3,1.1-0.7,2.3-1.3,3.4c-0.6,1.1-1.4,2.1-2.6,3c-1.1,0.9-2.6,1.6-4.3,2.2c-1.7,0.6-3.8,0.8-6.3,0.8c-4.1,0-7.3-0.5-9.8-1.4
			c-2.5-0.9-4.4-2.1-5.7-3.5c-1.3-1.4-2.2-3.1-2.6-4.9c-0.4-1.8-0.6-3.7-0.6-5.6V7.3H247V6.4H267.8z"/>
		<path class="st0" d="M317.2,50.3v0.9h-20.7v-0.9h5.8v-43h-5.8V6.4h5.8c2.1,0,4.3,0,6.4-0.1c2.1-0.1,4.3-0.1,6.4-0.1
			c1.9,0,3.9,0.2,6.1,0.5c2.2,0.3,4.2,0.9,6,1.8c1.8,0.9,3.4,2.1,4.6,3.6c1.2,1.5,1.9,3.5,1.9,5.9c0,1.6-0.4,3.2-1.2,4.6
			c-0.8,1.4-2,2.7-3.6,3.8c-1.6,1.1-3.7,1.9-6.2,2.5c-2.5,0.6-5.4,0.9-8.7,0.9h-2.6v20.4H317.2z M313.4,29c3.6,0,6.1-0.8,7.7-2.4
			c1.6-1.6,2.4-4.3,2.4-8.2c0-3.6-0.7-6.4-2.1-8.4c-1.4-1.9-3.9-2.9-7.5-2.9c-0.5,0-0.9,0-1.3,0.1c-0.4,0-0.8,0.1-1.1,0.1V29H313.4z
			"/>
		<path class="st0" d="M340.6,37.2c0.1,0.5,0.2,1.2,0.4,2c0.2,0.8,0.5,1.7,0.9,2.6c0.4,0.9,0.9,1.9,1.5,2.9c0.6,1,1.4,1.9,2.2,2.7
			c1,1,1.9,1.7,2.8,2.2c0.9,0.5,1.8,0.9,2.6,1.1c0.8,0.2,1.6,0.4,2.3,0.4c0.7,0,1.4,0,2,0c2.2,0,4-0.3,5.5-1
			c1.4-0.7,2.5-1.5,3.4-2.5s1.4-2.1,1.7-3.2c0.3-1.1,0.5-2.1,0.5-2.9c0-1.5-0.4-2.8-1.1-3.8c-0.7-1-1.7-1.8-2.9-2.5
			c-1.2-0.7-2.6-1.2-4.1-1.7c-1.5-0.5-3.1-0.9-4.8-1.4c-1.6-0.5-3.2-1-4.8-1.7c-1.5-0.6-2.9-1.5-4.1-2.5c-1.2-1-2.2-2.3-2.9-3.8
			s-1.1-3.4-1.1-5.7c0-1.7,0.4-3.3,1.1-4.8c0.8-1.5,1.8-2.9,3.1-4.1c1.3-1.2,2.9-2.2,4.8-2.9c1.9-0.7,3.9-1.1,6.1-1.1
			c1.4,0,2.6,0.1,3.6,0.4c1,0.3,2,0.5,2.8,0.8c0.8,0.3,1.5,0.5,2.1,0.8c0.6,0.3,1.2,0.4,1.7,0.4c0.6,0,1-0.1,1.2-0.3s0.4-0.5,0.6-1
			h1v11.9h-0.8c-0.5-1.5-1-2.9-1.6-4.3c-0.6-1.4-1.3-2.7-2.2-3.9c-0.9-1.2-2-2.1-3.3-2.8c-1.3-0.7-3-1.1-5.1-1.1
			c-1.7,0-3.2,0.2-4.4,0.7c-1.3,0.5-2.4,1.1-3.2,1.8c-0.9,0.8-1.5,1.6-2,2.5c-0.5,0.9-0.7,1.9-0.7,2.8c0,1.5,0.4,2.7,1.2,3.6
			c0.8,1,1.8,1.8,3,2.5c1.3,0.7,2.7,1.3,4.3,1.8s3.3,1,5,1.6c1.7,0.5,3.3,1.1,5,1.8c1.6,0.6,3,1.5,4.3,2.5c1.3,1,2.3,2.2,3,3.6
			c0.8,1.4,1.2,3.2,1.2,5.3c0,2.1-0.4,4-1.3,5.8c-0.8,1.8-2,3.5-3.5,4.8c-1.5,1.4-3.4,2.5-5.5,3.3c-2.1,0.8-4.5,1.2-7.1,1.2
			c-1.3,0-2.6-0.1-3.9-0.4c-1.3-0.3-2.5-0.5-3.6-0.8c-1.1-0.3-2.1-0.5-3-0.8c-0.9-0.3-1.5-0.4-1.9-0.4c-0.6,0-1,0.1-1.3,0.3
			c-0.3,0.2-0.5,0.6-0.7,1.2h-1V37.2H340.6z"/>
	</g>
</g>
<path class="st1" d="M97,66.2v9.3h-1.7v-9.3h-1.8v-1.5h5.4v1.5H97z"/>
<path class="st1" d="M104.2,75.5l-1.4-4.5h-1v4.5h-1.7V64.7h2.7c2,0,2.8,1,2.8,3.2c0,1.3-0.3,2.3-1.3,2.8l1.6,4.8H104.2z
	 M102.8,66.2h-1.1v3.3h1.1c0.9,0,1.1-0.8,1.1-1.7C103.9,67,103.8,66.2,102.8,66.2z"/>
<path class="st1" d="M112.1,74.9c-0.5,0.5-1.2,0.8-2,0.8s-1.5-0.3-2-0.8c-0.5-0.5-0.7-1.2-0.7-2v-8.2h1.7V73c0,0.8,0.5,1.2,1.1,1.2
	c0.6,0,1.1-0.4,1.1-1.2v-8.3h1.7v8.2C112.8,73.7,112.6,74.4,112.1,74.9z"/>
<path class="st1" d="M119.1,74.9c-0.4,0.4-1.2,0.7-2.1,0.7c-0.9,0-1.6-0.3-2.1-0.7c-0.5-0.5-0.7-1.2-0.7-2.3h1.7
	c0,0.6,0.1,0.9,0.3,1.2c0.2,0.2,0.4,0.3,0.8,0.3c0.4,0,0.7-0.1,0.8-0.3c0.2-0.3,0.3-0.6,0.3-1.2c0-1.2-0.2-1.4-1-1.8l-1.3-0.5
	c-1.1-0.5-1.5-1.1-1.5-2.7c0-1,0.3-1.8,0.9-2.3c0.5-0.4,1.1-0.7,1.9-0.7c0.9,0,1.5,0.2,2,0.7c0.6,0.5,0.8,1.3,0.8,2.4H118
	c0-0.5,0-0.9-0.3-1.2c-0.2-0.2-0.4-0.3-0.8-0.3c-0.4,0-0.6,0.1-0.7,0.3c-0.2,0.2-0.3,0.6-0.3,1.1c0,0.9,0.1,1.2,0.9,1.5l1.3,0.5
	c1.3,0.5,1.6,1.2,1.6,3.1C119.8,73.6,119.7,74.4,119.1,74.9z"/>
<path class="st1" d="M124.2,66.2v9.3h-1.7v-9.3h-1.8v-1.5h5.4v1.5H124.2z"/>
<path class="st2" d="M141.8,75.5v-12h1.6v12H141.8z"/>
<path class="st1" d="M164.2,75c-0.5,0.4-1.1,0.7-1.9,0.7c-1,0-1.6-0.4-2.1-0.9c-0.8-0.9-0.8-2.5-0.8-4.6c0-2.1,0-3.7,0.8-4.7
	c0.5-0.5,1.1-0.9,2.1-0.9c0.8,0,1.4,0.2,1.9,0.7c0.5,0.5,0.8,1.3,0.9,2.3h-1.7c0-0.4-0.1-0.8-0.3-1.1c-0.2-0.2-0.4-0.4-0.8-0.4
	s-0.7,0.2-0.8,0.4c-0.3,0.5-0.4,1.6-0.4,3.6c0,2,0.1,3.1,0.4,3.6c0.2,0.2,0.4,0.4,0.8,0.4s0.7-0.2,0.8-0.4c0.2-0.3,0.2-0.7,0.3-1.1
	h1.7C165.1,73.6,164.7,74.5,164.2,75z"/>
<path class="st1" d="M171.2,74.7c-0.5,0.5-1.1,0.9-2.1,0.9s-1.6-0.4-2.1-0.9c-0.8-0.9-0.8-2.5-0.8-4.6s0-3.7,0.8-4.6
	c0.5-0.5,1.1-0.9,2.1-0.9s1.6,0.4,2.1,0.9c0.8,0.9,0.8,2.5,0.8,4.6S172,73.8,171.2,74.7z M170,66.5c-0.2-0.2-0.4-0.4-0.8-0.4
	s-0.7,0.2-0.8,0.4c-0.3,0.5-0.4,1.6-0.4,3.6c0,2,0.1,3.1,0.4,3.6c0.2,0.2,0.4,0.4,0.8,0.4s0.7-0.2,0.8-0.4c0.3-0.5,0.4-1.6,0.4-3.6
	C170.3,68.1,170.3,67,170,66.5z"/>
<path class="st1" d="M177.7,75.5l-1.4-4.5h-1v4.5h-1.7V64.7h2.7c2,0,2.8,1,2.8,3.2c0,1.3-0.3,2.3-1.3,2.8l1.6,4.8H177.7z
	 M176.3,66.2h-1.1v3.3h1.1c0.9,0,1.1-0.8,1.1-1.7C177.4,67,177.3,66.2,176.3,66.2z"/>
<path class="st1" d="M183.6,71.3h-1v4.2h-1.7V64.7h2.7c2,0,2.8,1,2.8,3.3C186.4,70.2,185.7,71.3,183.6,71.3z M183.6,66.2h-1.1v3.5
	h1.1c0.9,0,1.1-0.8,1.1-1.8S184.6,66.2,183.6,66.2z"/>
<path class="st1" d="M192.6,74.7c-0.5,0.5-1.1,0.9-2.1,0.9s-1.6-0.4-2.1-0.9c-0.8-0.9-0.8-2.5-0.8-4.6s0-3.7,0.8-4.6
	c0.5-0.5,1.1-0.9,2.1-0.9s1.6,0.4,2.1,0.9c0.8,0.9,0.8,2.5,0.8,4.6S193.4,73.8,192.6,74.7z M191.3,66.5c-0.2-0.2-0.4-0.4-0.8-0.4
	s-0.7,0.2-0.8,0.4c-0.3,0.5-0.4,1.6-0.4,3.6c0,2,0.1,3.1,0.4,3.6c0.2,0.2,0.4,0.4,0.8,0.4s0.7-0.2,0.8-0.4c0.3-0.5,0.4-1.6,0.4-3.6
	C191.7,68.1,191.6,67,191.3,66.5z"/>
<path class="st1" d="M199,75.5l-1.4-4.5h-1v4.5h-1.7V64.7h2.7c2,0,2.8,1,2.8,3.2c0,1.3-0.3,2.3-1.3,2.8l1.6,4.8H199z M197.7,66.2
	h-1.1v3.3h1.1c0.9,0,1.1-0.8,1.1-1.7C198.8,67,198.6,66.2,197.7,66.2z"/>
<path class="st1" d="M206.6,75.5l-0.4-2.2h-2.5l-0.4,2.2h-1.8l2.7-10.9h1.7l2.6,10.9H206.6z M204.9,67.3l-0.9,4.6h1.9L204.9,67.3z"
	/>
<path class="st1" d="M212.3,66.2v9.3h-1.7v-9.3h-1.8v-1.5h5.4v1.5H212.3z"/>
<path class="st1" d="M215.4,75.5V64.7h4.6v1.5h-2.9v3.1h2.5v1.5h-2.5V74h2.9v1.5H215.4z"/>
<path class="st2" d="M235.9,75.5v-12h1.6v12H235.9z"/>
<path class="st1" d="M258.2,75.5l-0.4-2.2h-2.5l-0.4,2.2H253l2.7-10.9h1.7l2.6,10.9H258.2z M256.5,67.3l-0.9,4.6h1.9L256.5,67.3z"/>
<path class="st1" d="M265.4,75c-0.5,0.4-1.1,0.7-1.9,0.7c-1,0-1.6-0.4-2.1-0.9c-0.8-0.9-0.8-2.5-0.8-4.6c0-2.1,0-3.7,0.8-4.7
	c0.5-0.5,1.1-0.9,2.1-0.9c0.8,0,1.4,0.2,1.9,0.7c0.5,0.5,0.8,1.3,0.9,2.3h-1.7c0-0.4-0.1-0.8-0.3-1.1c-0.2-0.2-0.4-0.4-0.8-0.4
	s-0.7,0.2-0.8,0.4c-0.3,0.5-0.4,1.6-0.4,3.6c0,2,0.1,3.1,0.4,3.6c0.2,0.2,0.4,0.4,0.8,0.4s0.7-0.2,0.8-0.4c0.2-0.3,0.2-0.7,0.3-1.1
	h1.7C266.3,73.6,266,74.5,265.4,75z"/>
<path class="st1" d="M272.3,75c-0.5,0.4-1.1,0.7-1.9,0.7c-1,0-1.6-0.4-2.1-0.9c-0.8-0.9-0.8-2.5-0.8-4.6c0-2.1,0-3.7,0.8-4.7
	c0.5-0.5,1.1-0.9,2.1-0.9c0.8,0,1.4,0.2,1.9,0.7c0.5,0.5,0.8,1.3,0.9,2.3h-1.7c0-0.4-0.1-0.8-0.3-1.1c-0.2-0.2-0.4-0.4-0.8-0.4
	s-0.7,0.2-0.8,0.4c-0.3,0.5-0.4,1.6-0.4,3.6c0,2,0.1,3.1,0.4,3.6c0.2,0.2,0.4,0.4,0.8,0.4s0.7-0.2,0.8-0.4c0.2-0.3,0.2-0.7,0.3-1.1
	h1.7C273.1,73.6,272.8,74.5,272.3,75z"/>
<path class="st1" d="M279.3,74.7c-0.5,0.5-1.1,0.9-2.1,0.9s-1.6-0.4-2.1-0.9c-0.8-0.9-0.8-2.5-0.8-4.6s0-3.7,0.8-4.6
	c0.5-0.5,1.1-0.9,2.1-0.9s1.6,0.4,2.1,0.9c0.8,0.9,0.8,2.5,0.8,4.6S280.1,73.8,279.3,74.7z M278,66.5c-0.2-0.2-0.4-0.4-0.8-0.4
	s-0.7,0.2-0.8,0.4c-0.3,0.5-0.4,1.6-0.4,3.6c0,2,0.1,3.1,0.4,3.6c0.2,0.2,0.4,0.4,0.8,0.4s0.7-0.2,0.8-0.4c0.3-0.5,0.4-1.6,0.4-3.6
	C278.4,68.1,278.4,67,278,66.5z"/>
<path class="st1" d="M286.4,74.9c-0.5,0.5-1.2,0.8-2,0.8s-1.5-0.3-2-0.8c-0.5-0.5-0.7-1.2-0.7-2v-8.2h1.7V73c0,0.8,0.5,1.2,1.1,1.2
	c0.6,0,1.1-0.4,1.1-1.2v-8.3h1.7v8.2C287.1,73.7,286.8,74.4,286.4,74.9z"/>
<path class="st1" d="M293.1,75.5l-2.6-6.5v6.5h-1.7V64.7h1.5l2.6,6.5v-6.5h1.7v10.9H293.1z"/>
<path class="st1" d="M299.4,66.2v9.3h-1.7v-9.3h-1.8v-1.5h5.4v1.5H299.4z"/>
<path class="st1" d="M302.5,75.5V64.7h1.7v10.9H302.5z"/>
<path class="st1" d="M310.3,75.5l-2.6-6.5v6.5H306V64.7h1.5l2.6,6.5v-6.5h1.7v10.9H310.3z"/>
<path class="st1" d="M316.2,75.7c-1,0-1.6-0.4-2.1-0.9c-0.8-0.9-0.8-2.5-0.8-4.6s0-3.7,0.8-4.6c0.5-0.5,1.1-0.9,2.1-0.9
	c0.8,0,1.5,0.3,1.9,0.7c0.5,0.5,0.8,1.3,0.8,2.3h-1.7c0-0.6-0.2-1.5-1.1-1.5c-0.4,0-0.7,0.2-0.8,0.4c-0.3,0.5-0.4,1.6-0.4,3.6
	c0,2,0.1,3.1,0.4,3.6c0.2,0.2,0.4,0.4,0.8,0.4c0.7,0,1.1-0.6,1.1-1.4V71h-1.1v-1.4h2.8v3C319,74.6,317.9,75.7,316.2,75.7z"/>
<path class="st2" d="M335,75.5v-12h1.6v12H335z"/>
<path class="st1" d="M355.9,66.2v9.3h-1.7v-9.3h-1.8v-1.5h5.4v1.5H355.9z"/>
<path class="st1" d="M363.3,75.5l-0.4-2.2h-2.5l-0.4,2.2h-1.8l2.7-10.9h1.7l2.6,10.9H363.3z M361.6,67.3l-0.9,4.6h1.9L361.6,67.3z"
	/>
<path class="st1" d="M369.7,75.5l-1.3-3.9l-1.3,3.9h-1.9l2.2-5.6l-2-5.2h1.9l1.1,3.6l1.1-3.6h1.9l-2,5.2l2.2,5.6H369.7z"/>
</svg>
